<?xml version="1.0" standalone="no"?>
<!DOCTYPE svg PUBLIC "-//W3C//DTD SVG 1.1//EN" "http://www.w3.org/Graphics/SVG/1.1/DTD/svg11.dtd" >
<svg xmlns="http://www.w3.org/2000/svg">
<metadata></metadata>
<defs>
<font id="knileblack" horiz-adv-x="1345" >
<font-face units-per-em="2048" ascent="1536" descent="-512" />
<missing-glyph horiz-adv-x="548" />
<glyph unicode=" "  horiz-adv-x="548" />
<glyph unicode="&#x09;" horiz-adv-x="548" />
<glyph unicode="&#xa0;" horiz-adv-x="548" />
<glyph unicode="!" horiz-adv-x="786" d="M141 1481h502l-90 -953h-322zM160 207q0 93 68.5 161t164.5 68q95 0 164.5 -68.5t69.5 -160.5q0 -96 -69 -165t-165 -69q-97 0 -165 68.5t-68 165.5z" />
<glyph unicode="&#x22;" horiz-adv-x="919" d="M59 1481h347l-37 -596h-273zM512 1481h348l-39 -596h-270z" />
<glyph unicode="#" horiz-adv-x="1433" d="M27 367v247h241l49 228h-190v248h242l71 344h330l-74 -344h185l71 344h330l-74 -344h191v-248h-242l-49 -228h190v-247h-243l-78 -367h-328l78 367h-182l-78 -367h-330l78 367h-188zM598 614h182l49 228h-184z" />
<glyph unicode="$" horiz-adv-x="1304" d="M92 0v496h275q31 -100 104.5 -158.5t171.5 -58.5q55 0 92 31.5t37 76.5q0 43 -37.5 76t-97 57.5t-132 51t-145 65t-132 89t-97 133.5t-37.5 190q0 168 124.5 284t318.5 125v182h231v-233q51 -28 100 -80v109h291v-453h-274q-23 86 -86.5 137t-149.5 51q-42 0 -73 -28 t-31 -70q0 -31 23.5 -55.5t62.5 -42.5t90 -35.5t107.5 -38.5t113 -46t107.5 -63.5t90 -87t62.5 -119.5t23.5 -157q0 -182 -126 -311t-325 -146v-184h-229v215q-101 48 -162 117v-119h-291z" />
<glyph unicode="%" horiz-adv-x="1808" d="M-8 1188q0 161 98.5 254.5t284.5 93.5q185 0 284 -94t99 -254q0 -165 -98.5 -261t-284.5 -96q-187 0 -285 95.5t-98 261.5zM182 0l1057 1434h379l-1057 -1434h-379zM297 1186q0 -164 78 -164t78 164q0 157 -78 157t-78 -157zM1053 252q0 161 98.5 254.5t284.5 93.5 q185 0 284 -94t99 -254q0 -164 -98.5 -260t-284.5 -96q-187 0 -285 96t-98 260zM1358 250q0 -164 78 -164q77 0 77 164q0 158 -77 158q-78 0 -78 -158z" />
<glyph unicode="&#x26;" horiz-adv-x="1554" d="M57 422q0 130 87.5 236t222.5 155q-156 152 -156 299q0 152 109 250t292 98q153 0 256 -100v74h306v-435h-269q-47 177 -168 177q-37 0 -60.5 -22.5t-23.5 -57.5q0 -11 2 -21.5t8.5 -22.5t10 -19t15.5 -21t16 -18.5t19.5 -21.5t18.5 -20l299 -313q9 64 9 139h456v-248 h-127q-24 -76 -77 -163l110 -119h121v-248h-426l-78 84q-179 -111 -373 -111q-269 0 -434.5 124t-165.5 325zM506 436q0 -71 51.5 -119.5t130.5 -48.5q84 0 146 33l-259 283q-28 -19 -48.5 -59t-20.5 -89z" />
<glyph unicode="'" horiz-adv-x="589" d="M63 1300q0 100 66.5 165t167.5 65q104 0 178 -82t74 -205q0 -158 -82 -293t-234 -233l-110 123q134 100 149 239h-8q-88 0 -144.5 68t-56.5 153z" />
<glyph unicode="(" horiz-adv-x="761" d="M88 635q0 250 133.5 491t364.5 424l172 -133q-283 -359 -283 -782t283 -782l-172 -134q-231 183 -364.5 424.5t-133.5 491.5z" />
<glyph unicode=")" horiz-adv-x="761" d="M4 -147q283 359 283 782t-283 782l172 133q231 -183 364.5 -424t133.5 -491t-133.5 -491.5t-364.5 -424.5z" />
<glyph unicode="*" horiz-adv-x="985" d="M59 979l254 84l-254 92l146 242l192 -178l-45 262h279l-47 -262l196 178l146 -242l-256 -92l256 -84l-146 -244l-194 174l45 -258h-279l45 258l-192 -174z" />
<glyph unicode="+" horiz-adv-x="1144" d="M78 479v320h323v344h344v-344h322v-320h-322v-348h-344v348h-323z" />
<glyph unicode="," horiz-adv-x="645" d="M80 225q0 100 66 165t167 65q104 0 178 -82t74 -205q0 -159 -81.5 -294t-233.5 -232l-111 122q135 101 150 240h-8q-88 0 -144.5 68t-56.5 153z" />
<glyph unicode="-" horiz-adv-x="712" d="M68 451v344l579 -2v-344z" />
<glyph unicode="." horiz-adv-x="651" d="M80 215q0 97 75 168.5t175 71.5q99 0 170 -71.5t71 -168.5q0 -99 -71 -170.5t-170 -71.5q-100 0 -175 72t-75 170z" />
<glyph unicode="/" horiz-adv-x="985" d="M14 -221l621 1757h358l-620 -1757h-359z" />
<glyph unicode="0" horiz-adv-x="1400" d="M90 723q0 175 34.5 307.5t107.5 227.5t190 143.5t278 48.5q317 0 464 -186t147 -541q0 -743 -611 -743q-610 0 -610 743zM553 723q0 -105 5.5 -178t21 -136.5t45.5 -94.5t75 -31t75.5 31.5t45.5 94.5t21 136.5t6 177.5q0 103 -6 174t-21 131t-45 89.5t-76 29.5 t-75.5 -29.5t-45 -89.5t-21 -131t-5.5 -174z" />
<glyph unicode="1" horiz-adv-x="952" d="M-4 1124l381 310h389v-1178h143v-256h-757v256h182v827l-168 -155z" />
<glyph unicode="2" horiz-adv-x="1171" d="M29 1063q45 180 191 286.5t360 106.5q235 0 378.5 -121.5t143.5 -310.5q0 -79 -29.5 -150t-78 -124.5t-107 -102.5t-118.5 -93.5t-111 -87.5t-87 -94t-43 -104h256v150h330v-418h-1077v139q0 92 33.5 179.5t87 156.5t118 133.5t129 120t118 106t87 101t33.5 96.5 q0 58 -31.5 91.5t-83.5 33.5q-61 0 -100 -59t-49 -148z" />
<glyph unicode="3" horiz-adv-x="1247" d="M10 338l367 113q18 -82 66 -131.5t120 -49.5q71 0 117.5 49.5t46.5 133.5q0 76 -64 120.5t-161 44.5h-115l-68 173l379 391h-266v-119h-332v371h1012v-238l-364 -344h8q200 0 317 -103t117 -288q0 -106 -46 -197.5t-127 -155.5t-195 -100.5t-247 -36.5q-219 0 -362 96.5 t-203 270.5z" />
<glyph unicode="4" horiz-adv-x="1335" d="M33 379v229l635 826h444v-803h152v-252h-152v-131h152v-248h-756v248h180v131h-655zM375 631h313v420z" />
<glyph unicode="5" horiz-adv-x="1259" d="M27 301l358 139q14 -71 63 -118.5t115 -47.5q80 0 130 54t50 143t-48 144t-130 55q-102 0 -164 -82l-307 96l66 750h919v-371h-329v106h-228l-39 -268q41 32 101.5 50t122.5 18q220 0 356.5 -138.5t136.5 -351.5q0 -223 -166.5 -365.5t-435.5 -142.5q-440 0 -571 330z " />
<glyph unicode="6" horiz-adv-x="1343" d="M88 678v20q0 162 42.5 299.5t124 241t210.5 162.5t291 59q241 0 434 -102l-125 -275q-138 78 -281 78q-114 0 -176.5 -94t-62.5 -252q35 61 105.5 99t158.5 38q208 0 344.5 -134.5t136.5 -342.5q0 -153 -75.5 -268t-208.5 -175.5t-306 -60.5q-293 0 -452.5 178.5 t-159.5 528.5zM547 471q0 -82 40 -141.5t109 -59.5q71 0 104.5 52.5t33.5 144.5q0 87 -35 141t-105 54q-68 0 -107.5 -54.5t-39.5 -136.5z" />
<glyph unicode="7" horiz-adv-x="1161" d="M14 975v459h1135v-244l-498 -1190h-465l502 1165h-342v-190h-332z" />
<glyph unicode="8" horiz-adv-x="1361" d="M90 418q0 142 90.5 233.5t241.5 110.5q-132 25 -212.5 109t-80.5 206q0 171 155 275t396 104t397 -104t156 -275q0 -122 -81 -206t-212 -109q151 -19 241.5 -110.5t90.5 -233.5q0 -201 -161.5 -324t-430.5 -123q-270 0 -430 123t-160 324zM535 436q0 -77 38 -125.5 t107 -48.5q70 0 108.5 48t38.5 126q0 80 -40.5 125t-106.5 45q-65 0 -105 -45t-40 -125zM569 1042q0 -61 30 -100t81 -39q52 0 82.5 39t30.5 100q0 59 -29.5 96.5t-83.5 37.5q-52 0 -81.5 -37.5t-29.5 -96.5z" />
<glyph unicode="9" horiz-adv-x="1327" d="M51 975q0 150 75.5 261t206 167.5t300.5 56.5q604 0 604 -704v-23q0 -134 -23.5 -248.5t-74.5 -210t-127.5 -162.5t-186 -104t-245.5 -37q-241 0 -441 101l135 272q130 -74 281 -74q229 0 229 375q-34 -63 -105.5 -100t-164.5 -37q-127 0 -233 59t-168 166.5t-62 241.5z M504 983q0 -83 33.5 -134.5t101.5 -51.5q66 0 104.5 51.5t38.5 130.5q0 77 -37 130.5t-104 53.5q-68 0 -102.5 -47.5t-34.5 -132.5z" />
<glyph unicode=":" horiz-adv-x="651" d="M80 215q0 97 75 168.5t175 71.5q99 0 170 -71.5t71 -168.5q0 -99 -71 -170.5t-170 -71.5q-100 0 -175 72t-75 170zM80 872q0 97 75 168.5t175 71.5q99 0 170 -71.5t71 -168.5q0 -99 -71 -170t-170 -71q-100 0 -175 71.5t-75 169.5z" />
<glyph unicode=";" horiz-adv-x="651" d="M80 225q0 100 66 165t167 65q104 0 178 -82t74 -205q0 -159 -81.5 -294t-233.5 -232l-111 122q135 101 150 240h-8q-88 0 -144.5 68t-56.5 153zM80 872q0 97 75 168.5t175 71.5q99 0 170 -71.5t71 -168.5q0 -99 -71 -170t-170 -71q-100 0 -175 71.5t-75 169.5z" />
<glyph unicode="&#x3c;" horiz-adv-x="1114" d="M80 498v286l917 408v-352l-536 -199l536 -199v-352z" />
<glyph unicode="=" horiz-adv-x="1196" d="M102 223v318h990v-318h-990zM102 725v319h990v-319h-990z" />
<glyph unicode="&#x3e;" horiz-adv-x="1114" d="M117 90v352l536 199l-536 199v352l917 -408v-286z" />
<glyph unicode="?" horiz-adv-x="1118" d="M10 1141q51 162 193.5 259t357.5 97q228 0 366 -115.5t138 -289.5q0 -62 -20.5 -116.5t-53.5 -94t-73 -74t-79.5 -64t-72.5 -56.5t-53.5 -57.5t-20.5 -62.5v-39h-364v74q0 56 20.5 107.5t50.5 88t66 75t66 70t50.5 71.5t20.5 80q0 44 -27.5 74t-68.5 30 q-55 0 -87.5 -51.5t-35.5 -122.5zM281 207q0 92 69 159.5t164 67.5q96 0 165 -67t69 -160q0 -97 -68.5 -165.5t-165.5 -68.5q-96 0 -164.5 68.5t-68.5 165.5z" />
<glyph unicode="@" horiz-adv-x="1994" d="M94 543q0 177 68.5 334.5t188 272.5t290.5 182t367 67q201 0 371 -62t283 -167t176 -245t63 -296q0 -225 -118 -363.5t-300 -138.5q-228 0 -309 152q-31 -70 -101 -111t-164 -41q-142 0 -239 114t-97 291q0 175 97.5 288.5t238.5 113.5q78 0 133.5 -34t83.5 -89v111h275 v-463q0 -42 22.5 -69.5t63.5 -27.5q54 0 90.5 66t36.5 186q0 237 -163 382t-445 145q-180 0 -320 -80.5t-214.5 -215.5t-74.5 -300q0 -170 74.5 -306t210.5 -214t309 -78q189 0 367 98l143 -213q-210 -143 -510 -143q-186 0 -351.5 64.5t-285.5 176t-190 271t-70 342.5z M879 532q0 -66 33 -104.5t89 -38.5q55 0 90 37.5t35 105.5q0 67 -33.5 103.5t-93.5 36.5q-53 0 -86.5 -38t-33.5 -102z" />
<glyph unicode="A" horiz-adv-x="1662" d="M6 0v256h131l445 1182h493l445 -1182h137v-256h-739v256h122l-34 127h-455l-35 -127h121v-256h-631zM633 674h291l-146 444z" />
<glyph unicode="B" horiz-adv-x="1511" d="M61 0v256h123v922h-123v256h799q145 0 259.5 -43t181.5 -126t67 -194t-82 -195.5t-205 -109.5q146 -27 242 -121.5t96 -222.5q0 -131 -73.5 -228t-196.5 -145.5t-279 -48.5h-809zM651 244h54q102 0 159.5 50t57.5 142q0 89 -60 135.5t-166 46.5h-45v-374zM651 856h45 q89 0 139 43t50 125q0 79 -51 122.5t-142 43.5h-41v-334z" />
<glyph unicode="C" horiz-adv-x="1521" d="M74 729q0 201 91.5 370.5t249.5 268t345 98.5q203 0 348 -145v113h311v-535h-291q-27 100 -98.5 161.5t-173.5 61.5q-117 0 -192.5 -106t-75.5 -281q0 -179 78 -295t196 -116q109 0 186.5 63.5t112.5 169.5l332 -213q-93 -182 -263 -277.5t-394 -95.5q-234 0 -408 98.5 t-264 269t-90 390.5z" />
<glyph unicode="D" horiz-adv-x="1632" d="M61 0v256h123v922h-123v256h684q176 0 325 -49t257.5 -139t170 -224.5t61.5 -298.5q0 -220 -94.5 -384.5t-267.5 -251.5t-402 -87h-734zM651 268h86q135 0 221 122t86 333q0 208 -94.5 325t-234.5 117h-64v-897z" />
<glyph unicode="E" horiz-adv-x="1284" d="M61 0v256h123v922h-123v256h1127v-387h-314v135h-223v-305h365v-269h-365v-356h232v160h311v-412h-1133z" />
<glyph unicode="F" horiz-adv-x="1269" d="M61 0v256h123v922h-123v256h1151v-410h-311v158h-250v-336h379v-268h-379v-322h187v-256h-777z" />
<glyph unicode="G" horiz-adv-x="1650" d="M74 719q0 154 55 293t147.5 238.5t219 157.5t264.5 58q232 0 397 -149v117h313v-471h-296q-35 82 -108 126t-173 44q-136 0 -219.5 -107.5t-83.5 -288.5q0 -196 77 -316t210 -120q113 0 184.5 64.5t85.5 169.5h-242v290h635v-825h-352v164q-177 -193 -432 -193 q-205 0 -361.5 99.5t-238.5 269t-82 379.5z" />
<glyph unicode="H" horiz-adv-x="1779" d="M61 0v256h123v922h-123v256h713v-256h-123v-283h477v283h-122v256h712v-256h-123v-922h123v-256h-712v256h122v322h-477v-322h123v-256h-713z" />
<glyph unicode="I" horiz-adv-x="835" d="M61 0v256h123v922h-123v256h713v-256h-123v-922h123v-256h-713z" />
<glyph unicode="J" horiz-adv-x="892" d="M-86 -307l37 244q64 -17 127 -19q76 0 123 42.5t47 125.5v1092h-174v256h764v-256h-123v-1104q0 -94 -43.5 -173.5t-116 -132.5t-166.5 -82.5t-196 -29.5q-157 0 -279 37z" />
<glyph unicode="K" horiz-adv-x="1667" d="M61 0v256h123v922h-123v256h697v-256h-107v-406l373 420h-135v242h700v-256h-164l-335 -357l436 -565h129v-256h-768v238h102l-338 497v-479h105v-256h-695z" />
<glyph unicode="L" horiz-adv-x="1243" d="M61 0v256h123v922h-123v256h730v-256h-140v-922h234v227h311v-483h-1135z" />
<glyph unicode="M" horiz-adv-x="2109" d="M61 0v256h123v922h-123v256h721l279 -717l270 717h717v-256h-123v-922h123v-256h-682v256h115v750l-334 -852h-293l-326 852v-750h113v-256h-580z" />
<glyph unicode="N" horiz-adv-x="1777" d="M61 0v256h123v922h-123v256h609l575 -859v603h-123v256h592v-256h-121v-1178h-493l-568 862v-606h123v-256h-594z" />
<glyph unicode="O" horiz-adv-x="1730" d="M74 729q0 160 57 296.5t159.5 233.5t251 152t324.5 55q234 0 414.5 -94.5t278.5 -262t98 -380.5q0 -165 -56 -305.5t-158 -240.5t-250.5 -156t-326.5 -56q-239 0 -419.5 97t-276.5 268.5t-96 392.5zM588 729q0 -196 75 -314t203 -118t202.5 118t74.5 314 q0 189 -74.5 300.5t-202.5 111.5t-203 -112t-75 -300z" />
<glyph unicode="P" horiz-adv-x="1433" d="M61 0v256h123v922h-123v256h777q154 0 280 -57.5t201.5 -167.5t75.5 -253q0 -140 -74 -250t-199 -168.5t-276 -58.5h-195v-223h178v-256h-768zM651 735h51q91 0 146 57t55 169q0 101 -62 159t-151 58h-39v-443z" />
<glyph unicode="Q" horiz-adv-x="1746" d="M74 729q0 158 58 294.5t161.5 234t253.5 153t327 55.5t326.5 -55.5t253 -153t161.5 -234t58 -294.5q0 -136 -48.5 -262t-137.5 -227l149 -129l-198 -226l-183 174q-174 -88 -381 -88q-180 0 -330.5 56.5t-253.5 157t-159.5 240.5t-56.5 304zM584 729q0 -204 77.5 -324 t212.5 -120q66 0 121 24l-159 154l172 194l145 -125q18 73 18 197q0 189 -79.5 300.5t-217.5 111.5q-135 0 -212.5 -111.5t-77.5 -300.5z" />
<glyph unicode="R" horiz-adv-x="1568" d="M61 0v256h123v922h-123v256h791q153 0 277 -48.5t199 -143.5t75 -220q0 -120 -78.5 -217.5t-194.5 -140.5l271 -408h158v-256h-527l-305 584h-76v-328h105v-256h-695zM651 805h62q86 0 141 51t55 143q0 90 -53 140.5t-139 50.5h-66v-385z" />
<glyph unicode="S" horiz-adv-x="1349" d="M88 0v496h287q31 -99 109 -157t180 -58q62 0 99.5 30.5t37.5 75.5q0 33 -24.5 59.5t-65.5 46.5t-94.5 39.5t-112.5 41.5t-117.5 48t-112 64.5t-94.5 86t-65.5 116.5t-24.5 153q0 178 138 298t350 120q189 0 325 -129v103h314v-451h-289q-25 84 -94 133t-162 49 q-44 0 -74.5 -26t-30.5 -68q0 -30 24.5 -53.5t65.5 -41t94.5 -34.5t112.5 -37.5t117.5 -45.5t112 -63.5t94.5 -87t65.5 -119.5t24.5 -157q0 -197 -149 -329t-377 -132q-206 0 -353 144v-115h-311z" />
<glyph unicode="T" horiz-adv-x="1495" d="M35 956v478h1425v-478h-307v226h-172v-926h166v-256h-799v256h166v926h-172v-226h-307z" />
<glyph unicode="U" horiz-adv-x="1669" d="M47 1178v256h707v-256h-121v-680q0 -94 53.5 -150.5t149.5 -56.5q95 0 147.5 56.5t52.5 150.5v680h-121v256h707v-256h-119v-664q0 -243 -184.5 -394t-482.5 -151q-299 0 -484.5 151t-185.5 394v664h-119z" />
<glyph unicode="V" horiz-adv-x="1652" d="M6 1178v256h772v-256h-135l234 -803l235 803h-135v256h670v-256h-140l-415 -1178h-523l-424 1178h-139z" />
<glyph unicode="W" horiz-adv-x="2408" d="M6 1178v256h756v-256h-150l168 -844l221 1100h502l228 -1100l165 844h-151v256h657v-256h-133l-291 -1178h-553l-213 901l-211 -901h-548l-312 1178h-135z" />
<glyph unicode="X" horiz-adv-x="1503" d="M16 0v256h140l348 479l-305 443h-152v256h719v-215h-94l170 -248l155 248h-94v215h576v-256h-144l-323 -453l327 -469h148v-256h-727v227h94l-182 262l-168 -262h94v-227h-582z" />
<glyph unicode="Y" horiz-adv-x="1515" d="M16 1178v256h723v-228h-116l198 -364l201 364h-117v228h596v-256h-139l-365 -592v-330h158v-256h-784v256h159v322l-376 600h-138z" />
<glyph unicode="Z" d="M55 0v229l641 955h-303v-203h-311v453h1178v-228l-642 -956h353v237h313v-487h-1229z" />
<glyph unicode="[" horiz-adv-x="724" d="M170 -293v1856h535v-211h-193v-1434h193v-211h-535z" />
<glyph unicode="\" horiz-adv-x="985" d="M-8 1536h358l621 -1757h-359z" />
<glyph unicode="]" horiz-adv-x="724" d="M20 -82h193v1434h-193v211h535v-1856h-535v211z" />
<glyph unicode="^" horiz-adv-x="1173" d="M43 651l385 783h317l385 -783h-380l-172 398l-170 -398h-365z" />
<glyph unicode="_" horiz-adv-x="1366" d="M51 -25h1262v-251h-1262v251z" />
<glyph unicode="`" horiz-adv-x="763" d="M100 1497h435l129 -305h-293z" />
<glyph unicode="a" d="M66 328q0 162 126.5 252t327.5 90q128 0 238 -45v49q0 70 -49 112.5t-134 42.5q-170 0 -348 -73l-102 248q270 110 557 110q227 0 366.5 -115t139.5 -305v-446h125v-248h-531l-18 96q-47 -56 -129 -90.5t-168 -34.5q-186 0 -293.5 97t-107.5 260zM510 346q0 -49 35.5 -84 t91.5 -35t91.5 33.5t35.5 85.5q0 50 -34.5 82.5t-92.5 32.5q-57 0 -92 -34t-35 -81z" />
<glyph unicode="b" horiz-adv-x="1458" d="M41 0v248h125v985h-125v248h557v-533q49 72 132.5 118t184.5 46q213 0 344.5 -154t131.5 -405q0 -258 -134.5 -418t-351.5 -160q-98 0 -182.5 47.5t-132.5 120.5v-143h-549zM582 547q0 -125 48.5 -196.5t129.5 -71.5q82 0 132 73.5t50 194.5q0 118 -50 190t-132 72 q-79 0 -128.5 -72t-49.5 -190z" />
<glyph unicode="c" horiz-adv-x="1214" d="M59 553q0 153 68 281t188.5 203t268.5 75q156 0 280 -127v107h273v-445h-240q-19 81 -72 128.5t-127 47.5q-82 0 -136 -71.5t-54 -198.5q0 -121 58 -197.5t145 -76.5q65 0 115.5 37.5t72.5 97.5l275 -166q-74 -131 -205 -204t-297 -73q-274 0 -443.5 160t-169.5 422z" />
<glyph unicode="d" horiz-adv-x="1458" d="M68 553q0 250 137.5 404.5t359.5 154.5q97 0 175 -44t122 -114v279h-123v248h555l-2 -1233h125v-248h-547v145q-47 -77 -133.5 -123.5t-191.5 -46.5q-218 0 -347.5 157t-129.5 421zM516 547q0 -121 50 -194.5t132 -73.5q81 0 131 71.5t50 196.5q0 119 -51 190.5 t-130 71.5q-82 0 -132 -72t-50 -190z" />
<glyph unicode="e" horiz-adv-x="1296" d="M59 551q0 118 44.5 222t123 179.5t193 119.5t248.5 44q166 0 297 -76t201.5 -204.5t70.5 -284.5q0 -43 -8 -105l-725 -4q25 -89 83 -137.5t140 -48.5q70 0 129.5 27t97.5 71l265 -161q-84 -110 -219.5 -166t-299.5 -56q-291 0 -466 157.5t-175 422.5zM498 668h299 q0 81 -37.5 129.5t-104.5 48.5q-127 0 -157 -178z" />
<glyph unicode="f" horiz-adv-x="866" d="M49 0v248h125v592h-125v247h125v48q0 160 128.5 261t340.5 101q126 0 225 -12v-260q-54 14 -114 14q-71 0 -109.5 -32t-38.5 -87v-33h207v-247h-207v-592h154v-248h-711z" />
<glyph unicode="g" horiz-adv-x="1454" d="M68 563q0 245 138.5 397t358.5 152q97 0 175 -44t122 -114v133h557v-241h-125l-2 -733q0 -165 -93.5 -283t-254.5 -175.5t-373 -57.5q-225 0 -395 77l84 265q148 -72 309 -72q139 0 221 53.5t82 153.5v78q-48 -70 -135 -114t-192 -44q-217 0 -347 155t-130 414zM516 553 q0 -120 50 -193t132 -73q81 0 131 71.5t50 194.5q0 115 -51 185.5t-130 70.5q-82 0 -132 -71t-50 -185z" />
<glyph unicode="h" horiz-adv-x="1466" d="M41 0v248h125v989h-125v246h549v-555q44 77 129.5 127.5t195.5 50.5q181 0 287.5 -101t106.5 -278v-479h125v-248h-656v248h99v407q0 57 -37.5 97.5t-91.5 40.5q-68 0 -109 -42.5t-41 -103.5v-399h98v-248h-655z" />
<glyph unicode="i" horiz-adv-x="772" d="M49 0v248h125v592h-125v247h557v-839h125v-248h-682zM154 1393q0 91 64 148.5t165 57.5t164 -57.5t63 -148.5q0 -93 -63 -152t-164 -59q-104 0 -166.5 59t-62.5 152z" />
<glyph unicode="j" horiz-adv-x="755" d="M-31 -129q50 -12 92 -12q50 0 85.5 31.5t35.5 86.5v863h-125v247h557v-1122q0 -111 -62 -195t-164.5 -126.5t-227.5 -42.5q-106 0 -191 10v260zM162 1393q0 91 64 148.5t165 57.5t164 -57.5t63 -148.5q0 -93 -63 -152t-164 -59t-165 59.5t-64 151.5z" />
<glyph unicode="k" horiz-adv-x="1452" d="M41 0v248h125v985h-125v248h557v-883l238 268h-115v221h651v-247h-194l-164 -195l280 -397h144v-248h-473l-367 553v-305h90v-248h-647z" />
<glyph unicode="l" horiz-adv-x="763" d="M41 0v248h125v985h-125v248h557v-1233h125v-248h-682z" />
<glyph unicode="m" horiz-adv-x="2131" d="M49 0v248h125v592h-125v247h545v-172q39 84 120 135.5t195 51.5t198.5 -50t127.5 -132q48 79 141 130.5t209 51.5q174 0 281.5 -100.5t107.5 -276.5v-477h123v-248h-633v248h82v414q0 59 -35 97t-92 38q-58 0 -92.5 -42t-34.5 -100v-407h76v-248h-588v248h76v414 q0 59 -34.5 97t-88.5 38q-63 0 -97 -43.5t-34 -108.5v-397h80v-248h-633z" />
<glyph unicode="n" horiz-adv-x="1474" d="M49 0v248h125v592h-125v247h549v-161q44 77 130 128.5t196 51.5q181 0 287 -101t106 -278v-479h125v-248h-656v248h99v407q0 57 -37.5 97.5t-91.5 40.5q-68 0 -109 -42.5t-41 -103.5v-399h99v-248h-656z" />
<glyph unicode="o" horiz-adv-x="1370" d="M59 553q0 163 81 291.5t224 200t322 71.5q271 0 448 -158.5t177 -404.5q0 -170 -79.5 -302.5t-221.5 -206t-324 -73.5q-277 0 -452 162t-175 420zM508 553q0 -129 47 -206t131 -77q82 0 129 77t47 206q0 120 -47 192t-129 72q-84 0 -131 -72t-47 -192z" />
<glyph unicode="p" horiz-adv-x="1456" d="M39 840v247h555v-139q49 72 132.5 118t184.5 46q214 0 347 -154t133 -405q0 -258 -136 -418t-354 -160q-98 0 -180.5 47t-132.5 121v-278h141v-248h-688v248h123l-2 975h-123zM580 547q0 -125 49 -196.5t131 -71.5t132 73.5t50 194.5q0 118 -51 190t-131 72 q-79 0 -129.5 -72.5t-50.5 -189.5z" />
<glyph unicode="q" horiz-adv-x="1458" d="M68 553q0 250 137.5 404.5t359.5 154.5q97 0 175 -44t122 -114v133h557v-247h-125l-2 -975h125v-248h-690v248h143v280q-47 -77 -133.5 -123.5t-191.5 -46.5q-218 0 -347.5 157t-129.5 421zM516 547q0 -121 50 -194.5t132 -73.5q81 0 131 71.5t50 196.5 q0 121 -50.5 191.5t-130.5 70.5q-82 0 -132 -72t-50 -190z" />
<glyph unicode="r" horiz-adv-x="1058" d="M49 0v248h125v592h-125v247h549v-251q40 116 126 198t194 82q70 0 129 -12l-58 -432q-109 41 -211 41q-80 0 -126 -34.5t-46 -98.5v-332h152v-248h-709z" />
<glyph unicode="s" horiz-adv-x="1173" d="M82 -4v375h244q37 -69 106.5 -112.5t153.5 -43.5q42 0 67 23.5t25 60.5q0 27 -33 47.5t-85 36.5t-115.5 34t-127 46t-115.5 65t-85 99t-33 141q0 150 108 249t279 99t303 -104v84h273v-342h-244q-36 57 -99.5 93t-136.5 36q-35 0 -57.5 -21t-22.5 -51q0 -28 33.5 -48 t87 -35t118 -31.5t129.5 -43.5t118.5 -64.5t87 -101.5t33.5 -147q0 -159 -119 -264t-297 -105q-183 0 -324 115v-90h-272z" />
<glyph unicode="t" horiz-adv-x="870" d="M27 840v247h133v254h432v-254h211v-247h-211v-455q0 -57 35 -92t88 -35q56 0 112 16v-264q-117 -24 -231 -24q-212 0 -324 102t-112 287v465h-133z" />
<glyph unicode="u" horiz-adv-x="1439" d="M27 840v247h555v-653q0 -61 32.5 -99t83.5 -38q67 0 105.5 39.5t38.5 105.5v398h-125v247h557v-839h123v-248h-547v162q-49 -80 -139.5 -130t-200.5 -50q-169 0 -264.5 100t-95.5 280v478h-123z" />
<glyph unicode="v" horiz-adv-x="1415" d="M14 840v247h664v-247h-96l157 -570l152 570h-100v247h612v-247h-129l-297 -840h-528l-306 840h-129z" />
<glyph unicode="w" horiz-adv-x="2029" d="M14 840v247h621v-247h-100l104 -586l174 833h463l182 -825l101 578h-105v247h561v-247h-108l-215 -840h-508l-168 684l-164 -684h-500l-227 840h-111z" />
<glyph unicode="x" horiz-adv-x="1296" d="M41 0v248h119l256 305l-244 287h-121v247h623v-213h-80l127 -147l108 147h-84v213h496v-247h-123l-239 -299l254 -293h122v-248h-630v209h84l-136 156l-112 -156h84v-209h-504z" />
<glyph unicode="y" horiz-adv-x="1400" d="M14 840v247h658v-247h-94l155 -557l154 557h-99v247h598v-247h-126l-297 -801q-67 -183 -246 -314t-389 -131q-108 0 -197 21v260q56 -18 125 -18q68 0 127 29.5t84 76.5l18 35l-340 842h-131z" />
<glyph unicode="z" horiz-adv-x="1173" d="M70 0v203l497 645h-217v-119h-264v358h993v-202l-493 -645h248v135h262v-375h-1026z" />
<glyph unicode="{" horiz-adv-x="770" d="M88 526v217q72 0 111 45.5t39 131.5v245q0 193 142.5 295.5t369.5 102.5v-217q-88 0 -129 -46.5t-41 -121.5v-267q0 -113 -64.5 -183.5t-187.5 -92.5q123 -23 187.5 -94t64.5 -183v-266q0 -75 41 -121.5t129 -46.5v-217q-227 0 -369.5 102t-142.5 295v246 q0 85 -39.5 130.5t-110.5 45.5z" />
<glyph unicode="|" horiz-adv-x="745" d="M201 -422v2026h344v-2026h-344z" />
<glyph unicode="}" horiz-adv-x="770" d="M20 -76q88 0 129 46.5t41 121.5v266q0 113 64.5 184t187.5 93q-123 23 -187.5 93.5t-64.5 182.5v267q0 75 -41 121.5t-129 46.5v217q227 0 369.5 -102.5t142.5 -295.5v-245q0 -86 39.5 -131.5t110.5 -45.5v-217q-72 0 -111 -45t-39 -131v-246q0 -193 -142.5 -295 t-369.5 -102v217z" />
<glyph unicode="~" horiz-adv-x="1167" d="M68 414q-2 188 81 308t232 120q63 0 124.5 -16t100.5 -34.5t83.5 -34.5t76.5 -16q43 0 63.5 27t22.5 68h248q2 -188 -80.5 -308t-231.5 -120q-63 0 -124.5 15.5t-101.5 34.5t-84.5 34.5t-76.5 15.5q-40 0 -62.5 -27t-25.5 -67h-245z" />
<glyph unicode="&#xa1;" horiz-adv-x="786" d="M143 -383l90 952h322l90 -952h-502zM160 891q0 96 68.5 164.5t164.5 68.5q97 0 165.5 -68t68.5 -165q0 -93 -69 -161t-165 -68q-95 0 -164 68t-69 161z" />
<glyph unicode="&#xa2;" horiz-adv-x="1232" d="M88 715q0 214 125.5 371.5t318.5 183.5v164h218v-195q72 -34 137 -109v123h250v-444h-230q-18 79 -70 127.5t-124 48.5q-74 0 -125 -71.5t-51 -198.5q0 -121 54.5 -199t133.5 -78q59 0 105.5 37.5t74.5 99.5l266 -163q-66 -117 -173.5 -188.5t-241.5 -86.5v-166h-217v174 q-206 42 -328.5 194t-122.5 376z" />
<glyph unicode="&#xa3;" horiz-adv-x="1288" d="M66 604v248h165q-49 123 -49 186q0 184 129.5 303t331.5 119q160 0 277 -104v78h294v-449h-276q-17 86 -65 133t-119 47q-64 0 -102 -39t-38 -100q0 -51 48 -174h262v-248h-219q-3 0 -3 -2q-17 -185 -133 -354h336v170h312v-418h-1111v236q155 161 175 368h-215z" />
<glyph unicode="&#xa5;" horiz-adv-x="1456" d="M20 1178v256h687v-228h-113l186 -377l191 377h-113v228h578v-256h-142l-241 -398h202v-162h-303v-88h303v-163h-303v-119h158v-248h-758v248h158v119h-303v163h303v88h-303v162h201l-246 398h-142z" />
<glyph unicode="&#xa7;" horiz-adv-x="1255" d="M88 567q0 169 174 293q-100 107 -100 268q0 156 109.5 264.5t273.5 108.5q91 0 164 -34t118 -95v105h269v-398h-254q-19 62 -72.5 100t-126.5 38q-46 0 -75 -25t-29 -59q0 -32 34.5 -57t90 -44.5t122.5 -41t134 -54.5t122.5 -77t90 -116t34.5 -165q0 -180 -168 -299 q106 -109 103 -279q-2 -171 -110 -282t-281 -111q-196 0 -293 141v-115h-268v418h253q18 -70 74.5 -113.5t136.5 -43.5q49 0 80 24t31 66q0 33 -35 60t-91.5 49t-124.5 46.5t-135.5 60t-124 81.5t-91.5 119.5t-35 166.5zM467 643q0 -25 7.5 -46.5t17.5 -38t31.5 -33 t37.5 -26.5t48 -24t50.5 -21t57.5 -21t57 -21q14 32 14 71q0 24 -7.5 45t-17.5 37t-31 32.5t-37.5 27t-47 25t-50.5 22.5t-57 23t-57 24q-16 -37 -16 -76z" />
<glyph unicode="&#xa8;" horiz-adv-x="1140" d="M121 1370q0 74 53.5 122t138.5 48q84 0 137.5 -48t53.5 -122q0 -78 -53 -127t-138 -49q-89 0 -140.5 48.5t-51.5 127.5zM637 1370q0 74 54 122t138 48t137.5 -48t53.5 -122q0 -77 -53.5 -126.5t-137.5 -49.5q-89 0 -140.5 49t-51.5 127z" />
<glyph unicode="&#xa9;" horiz-adv-x="1734" d="M74 723q0 153 59 289.5t162.5 236.5t252 158.5t318.5 58.5q171 0 320 -58.5t252.5 -158.5t163 -236.5t59.5 -289.5q0 -156 -59.5 -294.5t-163 -239.5t-252.5 -159.5t-320 -58.5q-170 0 -318.5 58.5t-252 159.5t-162.5 239.5t-59 294.5zM340 723q0 -233 147 -386t379 -153 q155 0 275.5 70.5t186 193t65.5 275.5q0 150 -65.5 270.5t-186.5 190t-275 69.5q-232 0 -379 -151t-147 -379zM500 721q0 153 94.5 257.5t239.5 104.5q102 0 184 -82v64h180v-279h-162q-14 49 -46.5 78t-78.5 29q-50 0 -84 -45.5t-34 -126.5q0 -77 37 -127.5t92 -50.5 q41 0 71.5 23.5t46.5 62.5l183 -109q-50 -85 -135 -131.5t-193 -46.5q-178 0 -286.5 104.5t-108.5 274.5z" />
<glyph unicode="&#xaa;" horiz-adv-x="985" d="M53 885q0 118 92.5 183t239.5 65q92 0 176 -31v39q-2 54 -36.5 84t-98.5 30q-128 0 -256 -55l-74 178q194 80 408 80q164 0 265 -85t101 -222v-332h91v-178h-369l-23 74q-36 -42 -98 -68t-127 -26q-134 0 -212.5 71.5t-78.5 192.5zM371 897q0 -39 27.5 -66.5t72.5 -27.5 t71.5 26.5t26.5 67.5q0 38 -26.5 63t-71.5 25q-44 0 -72 -26.5t-28 -61.5z" />
<glyph unicode="&#xab;" horiz-adv-x="1259" d="M68 598l280 408h369l-281 -408l281 -405h-369zM596 598l281 408h368l-280 -408l280 -405h-368z" />
<glyph unicode="&#xad;" horiz-adv-x="712" d="M68 451v344l579 -2v-344z" />
<glyph unicode="&#xae;" horiz-adv-x="1013" d="M53 1090q0 184 126 307t329 123q202 0 327.5 -123t125.5 -307q0 -183 -126 -307t-327 -124q-203 0 -329 124t-126 307zM207 1090q0 -133 81.5 -218.5t219.5 -85.5t219.5 85.5t81.5 218.5q0 135 -80.5 220t-220.5 85q-137 0 -219 -85.5t-82 -219.5zM322 897v70h28v268h-28 v70h210q66 0 110 -30t44 -85q0 -37 -22 -64.5t-56 -40.5l74 -118h37v-70h-139l-80 166h-25v-98h31v-68h-184zM475 1122h21q26 0 42.5 16t16.5 46q0 26 -16.5 40.5t-42.5 14.5h-21v-117z" />
<glyph unicode="&#xaf;" horiz-adv-x="980" d="M121 1223v229h739v-229h-739z" />
<glyph unicode="&#xb0;" horiz-adv-x="806" d="M29 1106q0 150 105 253t269 103q165 0 271 -102t106 -252q0 -156 -105 -258t-272 -102q-168 0 -271 101.5t-103 256.5zM291 1106q0 -51 29.5 -83t82.5 -32t83 32.5t30 84.5q0 49 -30 80t-83 31q-52 0 -82 -31.5t-30 -81.5z" />
<glyph unicode="&#xb2;" horiz-adv-x="772" d="M53 1229q25 105 111 166t213 61q141 0 228 -69t87 -175q0 -59 -30.5 -111.5t-75 -91.5t-89.5 -74t-80.5 -72t-41.5 -72h117v81h204v-245h-628v100q0 72 34 138.5t83 114.5t97.5 89t82.5 77.5t34 63.5q0 28 -14 45t-37 17q-29 0 -49.5 -32t-22.5 -77z" />
<glyph unicode="&#xb3;" horiz-adv-x="772" d="M25 813l233 76q6 -38 30 -64t60 -26q37 0 61.5 23t24.5 57q0 41 -28 63.5t-72 22.5h-70l-41 112l217 191h-161v-78h-199v244h610v-162l-221 -170h8q104 0 177 -60.5t73 -162.5q0 -120 -102.5 -193.5t-262.5 -73.5q-128 0 -214.5 53t-122.5 148z" />
<glyph unicode="&#xb4;" horiz-adv-x="763" d="M100 1192l129 305h435l-271 -305h-293z" />
<glyph unicode="&#xb6;" horiz-adv-x="1452" d="M82 1044q0 163 114 276.5t277 113.5h907v-248h-153v-1278h-297v1278h-156v-1278h-295v743q-167 2 -282 115.5t-115 277.5z" />
<glyph unicode="&#xb7;" horiz-adv-x="706" d="M109 635q0 97 74.5 168t174.5 71q99 0 170.5 -71t71.5 -168q0 -99 -71.5 -170.5t-170.5 -71.5q-100 0 -174.5 72t-74.5 170z" />
<glyph unicode="&#xb8;" horiz-adv-x="706" d="M121 -461l41 168q31 -22 88 -22q30 0 48.5 14t18.5 41q0 25 -19.5 39t-51.5 14q-38 0 -68 -12l51 239h166l-20 -116h6q78 0 131 -49.5t53 -116.5q0 -112 -83 -172t-214 -60q-79 0 -147 33z" />
<glyph unicode="&#xb9;" horiz-adv-x="688" d="M29 1282l227 152h256v-643h100v-164h-483v164h113v448l-121 -88z" />
<glyph unicode="&#xba;" horiz-adv-x="1019" d="M53 1044q0 183 129.5 298.5t327.5 115.5t326.5 -115.5t128.5 -298.5q0 -192 -127 -310t-328 -118q-202 0 -329.5 118t-127.5 310zM381 1044q0 -93 34.5 -148.5t94.5 -55.5t94.5 55.5t34.5 148.5q0 87 -35 141t-94 54t-94 -54t-35 -141z" />
<glyph unicode="&#xbb;" horiz-adv-x="1259" d="M14 195l281 407l-281 406h369l281 -406l-281 -407h-369zM543 195l280 407l-280 406h368l281 -406l-281 -407h-368z" />
<glyph unicode="&#xbc;" horiz-adv-x="1832" d="M37 1282l227 152h256v-643h101v-164h-484v164h113v448l-121 -88zM358 -84l797 1602h283l-797 -1602h-283zM1022 227v129l358 455h269v-436h110v-148h-110v-80h110v-147h-487v147h112v80h-362zM1206 375h178v221z" />
<glyph unicode="&#xbd;" horiz-adv-x="1822" d="M37 1282l227 152h256v-643h101v-164h-484v164h113v448l-121 -88zM358 -84l797 1602h283l-797 -1602h-283zM1108 602q25 105 111 166t213 61q141 0 228 -68.5t87 -174.5q0 -59 -30.5 -111.5t-75 -92t-89.5 -74t-80.5 -72t-41.5 -72.5h116v82h205v-246h-629v100 q0 61 24.5 118.5t61.5 99.5t80 82.5t80 70t61.5 60t24.5 53.5q0 28 -14 44.5t-37 16.5q-29 0 -49.5 -31.5t-22.5 -76.5z" />
<glyph unicode="&#xbe;" horiz-adv-x="1865" d="M53 813l234 76q6 -38 30 -64t60 -26q37 0 61.5 23t24.5 57q0 41 -28 63.5t-73 22.5h-69l-41 112l217 191h-162v-78h-198v244h610v-162l-221 -170h8q104 0 177 -60.5t73 -162.5q0 -120 -102.5 -193.5t-262.5 -73.5q-129 0 -215.5 53t-122.5 148zM399 -84l797 1602h283 l-797 -1602h-283zM1061 227v129l352 455h268v-436h111v-148h-111v-80h111v-147h-489v147h112v80h-354zM1245 375h170v221z" />
<glyph unicode="&#xbf;" horiz-adv-x="1118" d="M53 23q0 62 20.5 116.5t53.5 93.5t73 74t79.5 64t72.5 56t53.5 57.5t20.5 62.5v39h365v-74q0 -66 -28.5 -125.5t-68.5 -102.5t-80.5 -83.5t-69 -86.5t-28.5 -94q0 -44 27.5 -74t68.5 -30q55 0 87.5 51.5t35.5 122.5l373 -117q-51 -162 -193.5 -259t-357.5 -97 q-228 0 -366 115.5t-138 290.5zM371 907q0 97 68 165.5t165 68.5q96 0 165 -69t69 -165q0 -92 -69.5 -159.5t-164.5 -67.5q-96 0 -164.5 67t-68.5 160z" />
<glyph unicode="&#xc0;" horiz-adv-x="1662" d="M6 0v256h131l445 1182h493l445 -1182h137v-256h-739v256h122l-34 127h-455l-35 -127h121v-256h-631zM475 1845h434l129 -305h-293zM633 674h291l-146 444z" />
<glyph unicode="&#xc1;" horiz-adv-x="1662" d="M6 0v256h131l445 1182h493l445 -1182h137v-256h-739v256h122l-34 127h-455l-35 -127h121v-256h-631zM633 674h291l-146 444zM641 1540l129 305h434l-270 -305h-293z" />
<glyph unicode="&#xc2;" horiz-adv-x="1662" d="M6 0v256h131l445 1182h493l445 -1182h137v-256h-739v256h122l-34 127h-455l-35 -127h121v-256h-631zM412 1540l252 289h325l252 -289h-317l-105 137l-104 -137h-303zM633 674h291l-146 444z" />
<glyph unicode="&#xc3;" horiz-adv-x="1662" d="M6 0v256h131l445 1182h493l445 -1182h137v-256h-739v256h122l-34 127h-455l-35 -127h121v-256h-631zM428 1534q0 134 68 224.5t174 90.5q70 0 165.5 -38.5t127.5 -38.5t51 20t22 47h185q0 -145 -65 -230t-173 -85q-55 0 -112 19.5t-104.5 39t-80.5 19.5 q-32 0 -51.5 -20.5t-22.5 -47.5h-184zM633 674h291l-146 444z" />
<glyph unicode="&#xc4;" horiz-adv-x="1662" d="M6 0v256h131l445 1182h493l445 -1182h137v-256h-739v256h122l-34 127h-455l-35 -127h121v-256h-631zM377 1718q0 74 53.5 122t138.5 48q84 0 137.5 -48t53.5 -122q0 -78 -53 -127t-138 -49q-89 0 -140.5 48.5t-51.5 127.5zM633 674h291l-146 444zM893 1718q0 74 54 122 t138 48t137.5 -48t53.5 -122q0 -77 -53.5 -126.5t-137.5 -49.5q-89 0 -140.5 49t-51.5 127z" />
<glyph unicode="&#xc5;" horiz-adv-x="1662" d="M6 0v256h131l445 1182h493l445 -1182h137v-256h-739v256h122l-34 127h-455l-35 -127h121v-256h-631zM543 1755q0 102 80.5 167t203.5 65q124 0 205.5 -65t81.5 -167t-81.5 -168.5t-205.5 -66.5q-122 0 -203 66.5t-81 168.5zM633 674h291l-146 444zM735 1753 q0 -37 25.5 -60.5t66.5 -23.5q42 0 68.5 23.5t26.5 60.5t-26.5 60.5t-68.5 23.5q-41 0 -66.5 -23.5t-25.5 -60.5z" />
<glyph unicode="&#xc6;" horiz-adv-x="2113" d="M0 0v256h139l649 1178h1229v-396h-311v144h-225v-318h364v-274h-364v-338h231v151h311v-403h-1130v256h121v334h-328l-164 -334h129v-256h-651zM801 815h213v428z" />
<glyph unicode="&#xc7;" horiz-adv-x="1521" d="M74 729q0 201 91.5 370.5t249.5 268t345 98.5q203 0 348 -145v113h311v-535h-291q-27 100 -98.5 161.5t-173.5 61.5q-117 0 -192.5 -106t-75.5 -281q0 -179 78 -295t196 -116q109 0 186.5 63.5t112.5 169.5l332 -213q-90 -177 -254 -272.5t-379 -100.5l-12 -67h6 q78 0 131 -49.5t53 -116.5q0 -112 -83 -172t-214 -60q-79 0 -147 33l41 168q31 -22 88 -22q31 0 49.5 14t18.5 41q0 25 -20 39t-52 14q-38 0 -68 -12l43 201q-192 28 -333 131t-214 261.5t-73 354.5z" />
<glyph unicode="&#xc8;" horiz-adv-x="1284" d="M61 0v256h123v922h-123v256h1127v-387h-314v135h-223v-305h365v-269h-365v-356h232v160h311v-412h-1133zM285 1845h434l129 -305h-293z" />
<glyph unicode="&#xc9;" horiz-adv-x="1284" d="M61 0v256h123v922h-123v256h1127v-387h-314v135h-223v-305h365v-269h-365v-356h232v160h311v-412h-1133zM451 1540l129 305h434l-271 -305h-292z" />
<glyph unicode="&#xca;" horiz-adv-x="1284" d="M61 0v256h123v922h-123v256h1127v-387h-314v135h-223v-305h365v-269h-365v-356h232v160h311v-412h-1133zM221 1540l252 289h326l252 -289h-318l-104 137l-105 -137h-303z" />
<glyph unicode="&#xcb;" horiz-adv-x="1284" d="M61 0v256h123v922h-123v256h1127v-387h-314v135h-223v-305h365v-269h-365v-356h232v160h311v-412h-1133zM186 1718q0 74 53.5 122t139.5 48q84 0 137 -48t53 -122q0 -78 -52.5 -127t-137.5 -49q-90 0 -141.5 48.5t-51.5 127.5zM702 1718q0 74 54.5 122t138.5 48t137 -48 t53 -122q0 -77 -53 -126.5t-137 -49.5q-89 0 -141 49t-52 127z" />
<glyph unicode="&#xcc;" horiz-adv-x="835" d="M61 0v256h123v922h-123v256h713v-256h-123v-922h123v-256h-713zM66 1845h434l129 -305h-293z" />
<glyph unicode="&#xcd;" horiz-adv-x="835" d="M61 0v256h123v922h-123v256h713v-256h-123v-922h123v-256h-713zM231 1540l129 305h435l-271 -305h-293z" />
<glyph unicode="&#xce;" horiz-adv-x="835" d="M2 1540l252 289h326l251 -289h-317l-104 137l-105 -137h-303zM61 0v256h123v922h-123v256h713v-256h-123v-922h123v-256h-713z" />
<glyph unicode="&#xcf;" horiz-adv-x="835" d="M-33 1718q0 74 53.5 122t139.5 48q84 0 137 -48t53 -122q0 -78 -52.5 -127t-137.5 -49q-90 0 -141.5 48.5t-51.5 127.5zM61 0v256h123v922h-123v256h713v-256h-123v-922h123v-256h-713zM483 1718q0 74 54.5 122t138.5 48t137 -48t53 -122q0 -77 -53 -126.5t-137 -49.5 q-89 0 -141 49t-52 127z" />
<glyph unicode="&#xd0;" horiz-adv-x="1675" d="M61 625v237h166v316h-123v256h684q176 0 325 -49t257.5 -139t170 -224.5t61.5 -298.5q0 -220 -94.5 -384.5t-267.5 -251.5t-402 -87h-734v256h123v369h-166zM694 268h86q135 0 221 122t86 333q0 208 -94.5 325t-234.5 117h-64v-303h195v-237h-195v-357z" />
<glyph unicode="&#xd1;" horiz-adv-x="1777" d="M61 0v256h123v922h-123v256h609l575 -859v603h-123v256h592v-256h-121v-1178h-493l-568 862v-606h123v-256h-594zM516 1534q0 134 68 224.5t174 90.5q70 0 165.5 -38.5t127.5 -38.5t51 20t22 47h185q0 -145 -65 -230t-173 -85q-55 0 -112 19.5t-104.5 39t-80.5 19.5 q-32 0 -51.5 -20.5t-22.5 -47.5h-184z" />
<glyph unicode="&#xd2;" horiz-adv-x="1730" d="M74 729q0 160 57 296.5t159.5 233.5t251 152t324.5 55q234 0 414.5 -94.5t278.5 -262t98 -380.5q0 -165 -56 -305.5t-158 -240.5t-250.5 -156t-326.5 -56q-239 0 -419.5 97t-276.5 268.5t-96 392.5zM514 1845h434l129 -305h-293zM588 729q0 -196 75 -314t203 -118 t202.5 118t74.5 314q0 189 -74.5 300.5t-202.5 111.5t-203 -112t-75 -300z" />
<glyph unicode="&#xd3;" horiz-adv-x="1730" d="M74 729q0 160 57 296.5t159.5 233.5t251 152t324.5 55q234 0 414.5 -94.5t278.5 -262t98 -380.5q0 -165 -56 -305.5t-158 -240.5t-250.5 -156t-326.5 -56q-239 0 -419.5 97t-276.5 268.5t-96 392.5zM588 729q0 -196 75 -314t203 -118t202.5 118t74.5 314 q0 189 -74.5 300.5t-202.5 111.5t-203 -112t-75 -300zM680 1540l129 305h434l-270 -305h-293z" />
<glyph unicode="&#xd4;" horiz-adv-x="1730" d="M74 729q0 160 57 296.5t159.5 233.5t251 152t324.5 55q234 0 414.5 -94.5t278.5 -262t98 -380.5q0 -165 -56 -305.5t-158 -240.5t-250.5 -156t-326.5 -56q-239 0 -419.5 97t-276.5 268.5t-96 392.5zM451 1540l251 289h326l252 -289h-317l-105 137l-104 -137h-303z M588 729q0 -196 75 -314t203 -118t202.5 118t74.5 314q0 189 -74.5 300.5t-202.5 111.5t-203 -112t-75 -300z" />
<glyph unicode="&#xd5;" horiz-adv-x="1730" d="M74 729q0 160 57 296.5t159.5 233.5t251 152t324.5 55q234 0 414.5 -94.5t278.5 -262t98 -380.5q0 -165 -56 -305.5t-158 -240.5t-250.5 -156t-326.5 -56q-239 0 -419.5 97t-276.5 268.5t-96 392.5zM467 1534q0 134 68 224.5t174 90.5q54 0 111 -19.5t104 -38.5t77 -19 q32 0 51.5 20t22.5 47h185q0 -145 -65 -230t-173 -85q-55 0 -112 19.5t-104.5 39t-80.5 19.5q-32 0 -51.5 -20.5t-22.5 -47.5h-184zM588 729q0 -196 75 -314t203 -118t202.5 118t74.5 314q0 189 -74.5 300.5t-202.5 111.5t-203 -112t-75 -300z" />
<glyph unicode="&#xd6;" horiz-adv-x="1730" d="M74 729q0 160 57 296.5t159.5 233.5t251 152t324.5 55q234 0 414.5 -94.5t278.5 -262t98 -380.5q0 -165 -56 -305.5t-158 -240.5t-250.5 -156t-326.5 -56q-239 0 -419.5 97t-276.5 268.5t-96 392.5zM416 1718q0 74 53.5 122t138.5 48q84 0 137.5 -48t53.5 -122 q0 -78 -53 -127t-138 -49q-89 0 -140.5 48.5t-51.5 127.5zM588 729q0 -196 75 -314t203 -118t202.5 118t74.5 314q0 189 -74.5 300.5t-202.5 111.5t-203 -112t-75 -300zM932 1718q0 74 54 122t138 48t137.5 -48t53.5 -122q0 -77 -53.5 -126.5t-137.5 -49.5q-89 0 -140.5 49 t-51.5 127z" />
<glyph unicode="&#xd7;" horiz-adv-x="1226" d="M102 332l287 307l-287 305l242 225l270 -290l269 290l241 -225l-284 -305l284 -307l-241 -226l-269 291l-270 -291z" />
<glyph unicode="&#xd8;" horiz-adv-x="1730" d="M74 729q0 160 57 296.5t159.5 233.5t251 152t324.5 55q224 0 406 -90l98 121l164 -139l-88 -107q102 -97 156.5 -231t54.5 -291q0 -165 -56 -305.5t-158 -240.5t-250.5 -156t-326.5 -56q-227 0 -401 88l-100 -120l-164 139l88 106q-104 100 -159.5 240t-55.5 305z M588 729q0 -84 16 -162l422 512q-68 62 -160 62q-128 0 -203 -112t-75 -300zM711 358q67 -61 155 -61q128 0 202.5 118t74.5 314q0 69 -13 139z" />
<glyph unicode="&#xd9;" horiz-adv-x="1669" d="M47 1178v256h707v-256h-121v-680q0 -94 53.5 -150.5t149.5 -56.5q95 0 147.5 56.5t52.5 150.5v680h-121v256h707v-256h-119v-664q0 -243 -184.5 -394t-482.5 -151q-299 0 -484.5 151t-185.5 394v664h-119zM481 1845h434l129 -305h-292z" />
<glyph unicode="&#xda;" horiz-adv-x="1669" d="M47 1178v256h707v-256h-121v-680q0 -94 53.5 -150.5t149.5 -56.5q95 0 147.5 56.5t52.5 150.5v680h-121v256h707v-256h-119v-664q0 -243 -184.5 -394t-482.5 -151q-299 0 -484.5 151t-185.5 394v664h-119zM647 1540l129 305h434l-270 -305h-293z" />
<glyph unicode="&#xdb;" horiz-adv-x="1669" d="M47 1178v256h707v-256h-121v-680q0 -94 53.5 -150.5t149.5 -56.5q95 0 147.5 56.5t52.5 150.5v680h-121v256h707v-256h-119v-664q0 -243 -184.5 -394t-482.5 -151q-299 0 -484.5 151t-185.5 394v664h-119zM418 1540l252 289h325l252 -289h-317l-105 137l-104 -137h-303z " />
<glyph unicode="&#xdc;" horiz-adv-x="1669" d="M47 1178v256h707v-256h-121v-680q0 -94 53.5 -150.5t149.5 -56.5q95 0 147.5 56.5t52.5 150.5v680h-121v256h707v-256h-119v-664q0 -243 -184.5 -394t-482.5 -151q-299 0 -484.5 151t-185.5 394v664h-119zM383 1718q0 74 53.5 122t138.5 48q84 0 137.5 -48t53.5 -122 q0 -78 -53 -127t-138 -49q-89 0 -140.5 48.5t-51.5 127.5zM899 1718q0 74 54.5 122t138.5 48t137 -48t53 -122q0 -77 -53 -126.5t-137 -49.5q-89 0 -141 49t-52 127z" />
<glyph unicode="&#xdd;" horiz-adv-x="1515" d="M16 1178v256h723v-228h-116l198 -364l201 364h-117v228h596v-256h-139l-365 -592v-330h158v-256h-784v256h159v322l-376 600h-138zM623 1540l129 305h434l-271 -305h-292z" />
<glyph unicode="&#xde;" horiz-adv-x="1392" d="M61 0v248h123v938h-123v248h758v-234l-168 4v-82h176q146 0 264.5 -45.5t190.5 -136.5t72 -211q0 -121 -70 -212.5t-187 -139t-261 -47.5h-185v-101l168 4v-233h-758zM651 563h60q70 0 114.5 43.5t44.5 126.5q0 72 -49 114t-119 42h-51v-326z" />
<glyph unicode="&#xdf;" horiz-adv-x="1476" d="M29 0v248h125v796q0 209 150.5 327t395.5 118q223 0 375 -105t152 -239q0 -102 -51.5 -170.5t-143.5 -100.5q159 -19 264 -122.5t105 -251.5q0 -227 -163 -363.5t-441 -136.5h-66v246q95 11 154 83t59 181q0 103 -75 166t-193 72v204q68 0 109.5 37.5t41.5 104.5 q0 56 -32.5 91.5t-89.5 35.5q-52 0 -85.5 -36t-33.5 -95v-842h65v-248h-622z" />
<glyph unicode="&#xe0;" d="M66 328q0 162 126.5 252t327.5 90q128 0 238 -45v49q0 70 -49 112.5t-134 42.5q-170 0 -348 -73l-102 248q270 110 557 110q227 0 366.5 -115t139.5 -305v-446h125v-248h-531l-18 96q-47 -56 -129 -90.5t-168 -34.5q-186 0 -293.5 97t-107.5 260zM336 1497h434l129 -305 h-293zM510 346q0 -49 35.5 -84t91.5 -35t91.5 33.5t35.5 85.5q0 50 -34.5 82.5t-92.5 32.5q-57 0 -92 -34t-35 -81z" />
<glyph unicode="&#xe1;" d="M66 328q0 162 126.5 252t327.5 90q128 0 238 -45v49q0 70 -49 112.5t-134 42.5q-170 0 -348 -73l-102 248q270 110 557 110q227 0 366.5 -115t139.5 -305v-446h125v-248h-531l-18 96q-47 -56 -129 -90.5t-168 -34.5q-186 0 -293.5 97t-107.5 260zM502 1192l129 305h434 l-270 -305h-293zM510 346q0 -49 35.5 -84t91.5 -35t91.5 33.5t35.5 85.5q0 50 -34.5 82.5t-92.5 32.5q-57 0 -92 -34t-35 -81z" />
<glyph unicode="&#xe2;" d="M66 328q0 162 126.5 252t327.5 90q128 0 238 -45v49q0 70 -49 112.5t-134 42.5q-170 0 -348 -73l-102 248q270 110 557 110q227 0 366.5 -115t139.5 -305v-446h125v-248h-531l-18 96q-47 -56 -129 -90.5t-168 -34.5q-186 0 -293.5 97t-107.5 260zM272 1192l252 289h326 l252 -289h-318l-104 137l-105 -137h-303zM510 346q0 -49 35.5 -84t91.5 -35t91.5 33.5t35.5 85.5q0 50 -34.5 82.5t-92.5 32.5q-57 0 -92 -34t-35 -81z" />
<glyph unicode="&#xe3;" d="M66 328q0 162 126.5 252t327.5 90q128 0 238 -45v49q0 70 -49 112.5t-134 42.5q-170 0 -348 -73l-102 248q270 110 557 110q227 0 366.5 -115t139.5 -305v-446h125v-248h-531l-18 96q-47 -56 -129 -90.5t-168 -34.5q-186 0 -293.5 97t-107.5 260zM289 1186 q0 134 67.5 224.5t173.5 90.5q54 0 111 -19.5t104.5 -39t77.5 -19.5q32 0 51.5 20.5t22.5 47.5h184q0 -145 -64.5 -230t-172.5 -85q-55 0 -112 19t-104.5 38.5t-80.5 19.5q-32 0 -51.5 -20t-22.5 -47h-184zM510 346q0 -49 35.5 -84t91.5 -35t91.5 33.5t35.5 85.5 q0 50 -34.5 82.5t-92.5 32.5q-57 0 -92 -34t-35 -81z" />
<glyph unicode="&#xe4;" d="M66 328q0 162 126.5 252t327.5 90q128 0 238 -45v49q0 70 -49 112.5t-134 42.5q-170 0 -348 -73l-102 248q270 110 557 110q227 0 366.5 -115t139.5 -305v-446h125v-248h-531l-18 96q-47 -56 -129 -90.5t-168 -34.5q-186 0 -293.5 97t-107.5 260zM238 1370q0 74 53.5 122 t138.5 48q84 0 137.5 -48t53.5 -122q0 -78 -53 -127t-138 -49q-89 0 -140.5 48.5t-51.5 127.5zM510 346q0 -49 35.5 -84t91.5 -35t91.5 33.5t35.5 85.5q0 50 -34.5 82.5t-92.5 32.5q-57 0 -92 -34t-35 -81zM754 1370q0 74 54 122t138 48t137.5 -48t53.5 -122 q0 -77 -53.5 -126.5t-137.5 -49.5q-89 0 -140.5 49t-51.5 127z" />
<glyph unicode="&#xe5;" d="M66 328q0 162 126.5 252t327.5 90q128 0 238 -45v49q0 70 -49 112.5t-134 42.5q-170 0 -348 -73l-102 248q270 110 557 110q227 0 366.5 -115t139.5 -305v-446h125v-248h-531l-18 96q-47 -56 -129 -90.5t-168 -34.5q-186 0 -293.5 97t-107.5 260zM403 1407 q0 102 81 166.5t204 64.5q124 0 205.5 -64.5t81.5 -166.5t-82 -169t-205 -67q-122 0 -203.5 67t-81.5 169zM510 346q0 -49 35.5 -84t91.5 -35t91.5 33.5t35.5 85.5q0 50 -34.5 82.5t-92.5 32.5q-57 0 -92 -34t-35 -81zM596 1405q0 -37 25.5 -60.5t66.5 -23.5q42 0 68 23.5 t26 60.5t-26 60.5t-68 23.5q-41 0 -66.5 -23.5t-25.5 -60.5z" />
<glyph unicode="&#xe6;" horiz-adv-x="1996" d="M66 328q0 162 126.5 252t327.5 90q128 0 238 -45v57q0 68 -48.5 107.5t-134.5 39.5q-170 0 -348 -73l-102 248q263 110 541 110q190 0 333 -127q168 129 367 129q167 0 298.5 -76t202 -204.5t70.5 -284.5q0 -44 -8 -102l-735 -5q25 -88 86.5 -138t144.5 -50q72 0 133 27 t97 71l264 -161q-84 -110 -219.5 -166t-300.5 -56q-266 0 -443 156q-169 -156 -424 -156q-221 0 -343.5 96.5t-122.5 260.5zM510 346q0 -49 37 -84t94 -35q59 0 95 33.5t36 83.5q0 52 -36 84.5t-95 32.5q-58 0 -94.5 -34t-36.5 -81zM1188 670h309q0 80 -37.5 128t-105.5 48 q-70 0 -110.5 -42.5t-55.5 -133.5z" />
<glyph unicode="&#xe7;" horiz-adv-x="1214" d="M59 553q0 153 68 281t188.5 203t268.5 75q156 0 280 -127v107h273v-445h-240q-19 81 -72 128.5t-127 47.5q-82 0 -136 -71.5t-54 -198.5q0 -121 58 -197.5t145 -76.5q65 0 115.5 37.5t72.5 97.5l275 -166q-71 -125 -192 -197.5t-277 -79.5l-13 -67h6q78 0 131.5 -49.5 t53.5 -116.5q0 -112 -83 -172t-214 -60q-80 0 -148 33l41 168q31 -22 88 -22q31 0 49.5 14t18.5 41q0 25 -20 39t-52 14q-37 0 -67 -12l43 201q-220 39 -350 191.5t-130 379.5z" />
<glyph unicode="&#xe8;" horiz-adv-x="1296" d="M59 551q0 118 44.5 222t123 179.5t193 119.5t248.5 44q166 0 297 -76t201.5 -204.5t70.5 -284.5q0 -43 -8 -105l-725 -4q25 -89 83 -137.5t140 -48.5q70 0 129.5 27t97.5 71l265 -161q-84 -110 -219.5 -166t-299.5 -56q-291 0 -466 157.5t-175 422.5zM317 1497h435 l129 -305h-293zM498 668h299q0 81 -37.5 129.5t-104.5 48.5q-127 0 -157 -178z" />
<glyph unicode="&#xe9;" horiz-adv-x="1296" d="M59 551q0 118 44.5 222t123 179.5t193 119.5t248.5 44q166 0 297 -76t201.5 -204.5t70.5 -284.5q0 -43 -8 -105l-725 -4q25 -89 83 -137.5t140 -48.5q70 0 129.5 27t97.5 71l265 -161q-84 -110 -219.5 -166t-299.5 -56q-291 0 -466 157.5t-175 422.5zM483 1192l129 305 h435l-271 -305h-293zM498 668h299q0 81 -37.5 129.5t-104.5 48.5q-127 0 -157 -178z" />
<glyph unicode="&#xea;" horiz-adv-x="1296" d="M59 551q0 118 44.5 222t123 179.5t193 119.5t248.5 44q166 0 297 -76t201.5 -204.5t70.5 -284.5q0 -43 -8 -105l-725 -4q25 -89 83 -137.5t140 -48.5q70 0 129.5 27t97.5 71l265 -161q-84 -110 -219.5 -166t-299.5 -56q-291 0 -466 157.5t-175 422.5zM254 1192l252 289 h325l252 -289h-317l-104 137l-105 -137h-303zM498 668h299q0 81 -37.5 129.5t-104.5 48.5q-127 0 -157 -178z" />
<glyph unicode="&#xeb;" horiz-adv-x="1296" d="M59 551q0 118 44.5 222t123 179.5t193 119.5t248.5 44q166 0 297 -76t201.5 -204.5t70.5 -284.5q0 -43 -8 -105l-725 -4q25 -89 83 -137.5t140 -48.5q70 0 129.5 27t97.5 71l265 -161q-84 -110 -219.5 -166t-299.5 -56q-291 0 -466 157.5t-175 422.5zM219 1370 q0 74 53.5 122t139.5 48q84 0 137 -48t53 -122q0 -78 -52.5 -127t-137.5 -49q-90 0 -141.5 48.5t-51.5 127.5zM498 668h299q0 81 -37.5 129.5t-104.5 48.5q-127 0 -157 -178zM735 1370q0 74 54.5 122t138.5 48t137 -48t53 -122q0 -77 -53 -126.5t-137 -49.5q-89 0 -141 49 t-52 127z" />
<glyph unicode="&#xec;" horiz-adv-x="772" d="M12 1497h434l129 -305h-292zM49 0v248h125v592h-125v247h557v-839h125v-248h-682z" />
<glyph unicode="&#xed;" horiz-adv-x="772" d="M49 0v248h125v592h-125v247h557v-839h125v-248h-682zM178 1192l129 305h434l-270 -305h-293z" />
<glyph unicode="&#xee;" horiz-adv-x="772" d="M-51 1192l252 289h325l252 -289h-317l-105 137l-104 -137h-303zM49 0v248h125v592h-125v247h557v-839h125v-248h-682z" />
<glyph unicode="&#xef;" horiz-adv-x="796" d="M-59 1376q0 79 54.5 128.5t143.5 49.5q88 0 143.5 -50t55.5 -128q0 -81 -55.5 -131.5t-143.5 -50.5q-93 0 -145.5 49.5t-52.5 132.5zM70 0v248h125v592h-125v247h557v-839h125v-248h-682zM408 1376q0 78 54.5 128t141.5 50q89 0 144 -50t55 -128q0 -80 -55 -131t-144 -51 q-91 0 -143.5 50.5t-52.5 131.5z" />
<glyph unicode="&#xf0;" horiz-adv-x="1357" d="M57 508q0 219 149.5 362.5t379.5 143.5q89 0 215 -58q-60 103 -164 197l-293 -125l-68 156l199 86q-88 49 -188 86l219 168q155 -50 280 -123l256 110l66 -155l-158 -68q338 -283 338 -745q0 -253 -165.5 -412.5t-446.5 -159.5q-275 0 -447 150.5t-172 386.5zM489 502 q0 -120 50.5 -195.5t132.5 -75.5q81 0 132.5 77t51.5 196t-49 186.5t-135 67.5q-80 0 -131.5 -71.5t-51.5 -184.5z" />
<glyph unicode="&#xf1;" horiz-adv-x="1474" d="M49 0v248h125v592h-125v247h549v-161q44 77 130 128.5t196 51.5q181 0 287 -101t106 -278v-479h125v-248h-656v248h99v407q0 57 -37.5 97.5t-91.5 40.5q-68 0 -109 -42.5t-41 -103.5v-399h99v-248h-656zM406 1186q0 134 67.5 224.5t173.5 90.5q54 0 111 -19.5t104.5 -39 t77.5 -19.5q32 0 51.5 20.5t22.5 47.5h184q0 -145 -64.5 -230t-172.5 -85q-55 0 -112 19t-104.5 38.5t-80.5 19.5q-32 0 -51.5 -20t-22.5 -47h-184z" />
<glyph unicode="&#xf2;" horiz-adv-x="1370" d="M59 553q0 163 81 291.5t224 200t322 71.5q271 0 448 -158.5t177 -404.5q0 -170 -79.5 -302.5t-221.5 -206t-324 -73.5q-277 0 -452 162t-175 420zM334 1497h434l129 -305h-293zM508 553q0 -129 47 -206t131 -77q82 0 129 77t47 206q0 120 -47 192t-129 72q-84 0 -131 -72 t-47 -192z" />
<glyph unicode="&#xf3;" horiz-adv-x="1370" d="M59 553q0 163 81 291.5t224 200t322 71.5q271 0 448 -158.5t177 -404.5q0 -170 -79.5 -302.5t-221.5 -206t-324 -73.5q-277 0 -452 162t-175 420zM500 1192l129 305h434l-270 -305h-293zM508 553q0 -129 47 -206t131 -77q82 0 129 77t47 206q0 120 -47 192t-129 72 q-84 0 -131 -72t-47 -192z" />
<glyph unicode="&#xf4;" horiz-adv-x="1370" d="M59 553q0 163 81 291.5t224 200t322 71.5q271 0 448 -158.5t177 -404.5q0 -170 -79.5 -302.5t-221.5 -206t-324 -73.5q-277 0 -452 162t-175 420zM270 1192l252 289h326l252 -289h-318l-104 137l-105 -137h-303zM508 553q0 -129 47 -206t131 -77q82 0 129 77t47 206 q0 120 -47 192t-129 72q-84 0 -131 -72t-47 -192z" />
<glyph unicode="&#xf5;" horiz-adv-x="1370" d="M59 553q0 163 81 291.5t224 200t322 71.5q271 0 448 -158.5t177 -404.5q0 -170 -79.5 -302.5t-221.5 -206t-324 -73.5q-277 0 -452 162t-175 420zM287 1186q0 134 67.5 224.5t173.5 90.5q54 0 111 -19.5t104.5 -39t77.5 -19.5q32 0 51.5 20.5t22.5 47.5h184 q0 -145 -64.5 -230t-172.5 -85q-55 0 -112 19t-104.5 38.5t-80.5 19.5q-32 0 -51.5 -20t-22.5 -47h-184zM508 553q0 -129 47 -206t131 -77q82 0 129 77t47 206q0 120 -47 192t-129 72q-84 0 -131 -72t-47 -192z" />
<glyph unicode="&#xf6;" horiz-adv-x="1370" d="M59 553q0 163 81 291.5t224 200t322 71.5q271 0 448 -158.5t177 -404.5q0 -170 -79.5 -302.5t-221.5 -206t-324 -73.5q-277 0 -452 162t-175 420zM236 1370q0 74 53.5 122t138.5 48q84 0 137 -48t53 -122q0 -78 -52.5 -127t-137.5 -49q-89 0 -140.5 48.5t-51.5 127.5z M508 553q0 -129 47 -206t131 -77q82 0 129 77t47 206q0 120 -47 192t-129 72q-84 0 -131 -72t-47 -192zM752 1370q0 74 54 122t138 48t137.5 -48t53.5 -122q0 -77 -53.5 -126.5t-137.5 -49.5q-89 0 -140.5 49t-51.5 127z" />
<glyph unicode="&#xf7;" horiz-adv-x="1144" d="M78 479v320h989v-320h-989zM377 221q0 72 54 119t138 47t137.5 -47t53.5 -119q0 -75 -53.5 -123.5t-137.5 -48.5q-88 0 -140 48t-52 124zM377 1063q0 72 54 119t138 47t137.5 -47t53.5 -119q0 -75 -53.5 -123.5t-137.5 -48.5q-88 0 -140 48t-52 124z" />
<glyph unicode="&#xf8;" horiz-adv-x="1370" d="M59 553q0 163 81 291.5t224 200t322 71.5q172 0 305 -65l68 82l125 -105l-56 -65q88 -76 135.5 -181t47.5 -229q0 -170 -79.5 -302.5t-221.5 -206t-324 -73.5q-177 0 -317 70l-90 -109l-125 105l79 96q-174 160 -174 420zM508 553q0 -43 6 -80l260 315q-40 29 -88 29 q-84 0 -131 -72t-47 -192zM588 307q40 -37 98 -37q82 0 129 77t47 206q0 41 -6 78z" />
<glyph unicode="&#xf9;" horiz-adv-x="1439" d="M27 840v247h555v-653q0 -61 32.5 -99t83.5 -38q67 0 105.5 39.5t38.5 105.5v398h-125v247h557v-839h123v-248h-547v162q-49 -80 -139.5 -130t-200.5 -50q-169 0 -264.5 100t-95.5 280v478h-123zM332 1497h434l129 -305h-293z" />
<glyph unicode="&#xfa;" horiz-adv-x="1439" d="M27 840v247h555v-653q0 -61 32.5 -99t83.5 -38q67 0 105.5 39.5t38.5 105.5v398h-125v247h557v-839h123v-248h-547v162q-49 -80 -139.5 -130t-200.5 -50q-169 0 -264.5 100t-95.5 280v478h-123zM498 1192l129 305h434l-270 -305h-293z" />
<glyph unicode="&#xfb;" horiz-adv-x="1439" d="M27 840v247h555v-653q0 -61 32.5 -99t83.5 -38q67 0 105.5 39.5t38.5 105.5v398h-125v247h557v-839h123v-248h-547v162q-49 -80 -139.5 -130t-200.5 -50q-169 0 -264.5 100t-95.5 280v478h-123zM268 1192l252 289h326l252 -289h-318l-104 137l-105 -137h-303z" />
<glyph unicode="&#xfc;" horiz-adv-x="1439" d="M27 840v247h555v-653q0 -61 32.5 -99t83.5 -38q67 0 105.5 39.5t38.5 105.5v398h-125v247h557v-839h123v-248h-547v162q-49 -80 -139.5 -130t-200.5 -50q-169 0 -264.5 100t-95.5 280v478h-123zM233 1370q0 74 53.5 122t139.5 48q84 0 137 -48t53 -122q0 -78 -52.5 -127 t-137.5 -49q-90 0 -141.5 48.5t-51.5 127.5zM750 1370q0 74 54 122t138 48t137.5 -48t53.5 -122q0 -77 -53.5 -126.5t-137.5 -49.5q-89 0 -140.5 49t-51.5 127z" />
<glyph unicode="&#xfd;" horiz-adv-x="1400" d="M14 840v247h658v-247h-94l155 -557l154 557h-99v247h598v-247h-126l-297 -801q-67 -183 -246 -314t-389 -131q-108 0 -197 21v260q56 -18 125 -18q68 0 127 29.5t84 76.5l18 35l-340 842h-131zM541 1192l129 305h434l-270 -305h-293z" />
<glyph unicode="&#xfe;" horiz-adv-x="1460" d="M41 1233v248h557v-533q49 72 132.5 118t184.5 46q214 0 346 -153.5t132 -403.5q0 -259 -135 -419.5t-353 -160.5q-98 0 -182.5 47.5t-132.5 120.5v-278h143v-248h-690v248h125l-2 1368h-125zM584 549q0 -126 48.5 -198t129.5 -72q82 0 132 73.5t50 196.5q0 117 -50 188.5 t-132 71.5q-78 0 -128 -72t-50 -188z" />
<glyph unicode="&#xff;" horiz-adv-x="1400" d="M14 840v247h658v-247h-94l155 -557l154 557h-99v247h598v-247h-126l-297 -801q-67 -183 -246 -314t-389 -131q-108 0 -197 21v260q56 -18 125 -18q68 0 127 29.5t84 76.5l18 35l-340 842h-131zM276 1370q0 74 53.5 122t139.5 48q84 0 137 -48t53 -122q0 -78 -52.5 -127 t-137.5 -49q-90 0 -141.5 48.5t-51.5 127.5zM793 1370q0 74 54 122t138 48t137.5 -48t53.5 -122q0 -77 -53.5 -126.5t-137.5 -49.5q-89 0 -140.5 49t-51.5 127z" />
<glyph unicode="&#x100;" horiz-adv-x="1662" d="M6 0v256h131l445 1182h493l445 -1182h137v-256h-739v256h122l-34 127h-455l-35 -127h121v-256h-631zM459 1571v229h739v-229h-739zM633 674h291l-146 444z" />
<glyph unicode="&#x101;" d="M66 328q0 162 126.5 252t327.5 90q128 0 238 -45v49q0 70 -49 112.5t-134 42.5q-170 0 -348 -73l-102 248q270 110 557 110q227 0 366.5 -115t139.5 -305v-446h125v-248h-531l-18 96q-47 -56 -129 -90.5t-168 -34.5q-186 0 -293.5 97t-107.5 260zM319 1223v229h740v-229 h-740zM510 346q0 -49 35.5 -84t91.5 -35t91.5 33.5t35.5 85.5q0 50 -34.5 82.5t-92.5 32.5q-57 0 -92 -34t-35 -81z" />
<glyph unicode="&#x102;" horiz-adv-x="1662" d="M6 0v256h131l445 1182h493l445 -1182h137v-256h-739v256h122l-34 127h-455l-35 -127h121v-256h-631zM461 1851h264q0 -129 102 -129q105 0 105 129h264q0 -149 -103 -241t-266 -92q-162 0 -264 92t-102 241zM633 674h291l-146 444z" />
<glyph unicode="&#x103;" d="M66 328q0 162 126.5 252t327.5 90q128 0 238 -45v49q0 70 -49 112.5t-134 42.5q-170 0 -348 -73l-102 248q270 110 557 110q227 0 366.5 -115t139.5 -305v-446h125v-248h-531l-18 96q-47 -56 -129 -90.5t-168 -34.5q-186 0 -293.5 97t-107.5 260zM322 1503h264 q0 -129 102 -129q105 0 105 129h264q0 -149 -103 -241.5t-266 -92.5q-162 0 -264 92.5t-102 241.5zM510 346q0 -49 35.5 -84t91.5 -35t91.5 33.5t35.5 85.5q0 50 -34.5 82.5t-92.5 32.5q-57 0 -92 -34t-35 -81z" />
<glyph unicode="&#x104;" horiz-adv-x="1662" d="M6 0v256h131l445 1182h493l445 -1182h137v-256h-133q-80 -22 -130.5 -68t-50.5 -102q0 -30 16 -49t42 -19q48 0 92 48l100 -156q-42 -49 -111.5 -76t-144.5 -27q-114 0 -188 62t-74 168q0 129 127 219h-284v256h122l-34 127h-455l-35 -127h121v-256h-631zM633 674h291 l-146 444z" />
<glyph unicode="&#x105;" d="M66 328q0 162 126.5 252t327.5 90q128 0 238 -45v49q0 70 -49 112.5t-134 42.5q-170 0 -348 -73l-102 248q270 110 557 110q227 0 366.5 -115t139.5 -305v-446h125v-248h-111q-80 -22 -130 -68t-50 -102q0 -30 15.5 -49t41.5 -19q48 0 92 48l101 -156q-42 -49 -111.5 -76 t-144.5 -27q-114 0 -188 62t-74 168q0 129 127 219h-11l-82 88q-51 -52 -140 -84.5t-181 -32.5q-186 0 -293.5 97t-107.5 260zM510 346q0 -49 35.5 -84t91.5 -35t91.5 33.5t35.5 85.5q0 50 -34.5 82.5t-92.5 32.5q-57 0 -92 -34t-35 -81z" />
<glyph unicode="&#x106;" horiz-adv-x="1521" d="M74 729q0 201 91.5 370.5t249.5 268t345 98.5q203 0 348 -145v113h311v-535h-291q-27 100 -98.5 161.5t-173.5 61.5q-117 0 -192.5 -106t-75.5 -281q0 -179 78 -295t196 -116q109 0 186.5 63.5t112.5 169.5l332 -213q-93 -182 -263 -277.5t-394 -95.5q-234 0 -408 98.5 t-264 269t-90 390.5zM555 1540l129 305h434l-270 -305h-293z" />
<glyph unicode="&#x107;" horiz-adv-x="1214" d="M59 553q0 153 68 281t188.5 203t268.5 75q156 0 280 -127v107h273v-445h-240q-19 81 -72 128.5t-127 47.5q-82 0 -136 -71.5t-54 -198.5q0 -121 58 -197.5t145 -76.5q65 0 115.5 37.5t72.5 97.5l275 -166q-74 -131 -205 -204t-297 -73q-274 0 -443.5 160t-169.5 422z M401 1192l129 305h435l-271 -305h-293z" />
<glyph unicode="&#x108;" horiz-adv-x="1521" d="M74 729q0 201 91.5 370.5t249.5 268t345 98.5q203 0 348 -145v113h311v-535h-291q-27 100 -98.5 161.5t-173.5 61.5q-117 0 -192.5 -106t-75.5 -281q0 -179 78 -295t196 -116q109 0 186.5 63.5t112.5 169.5l332 -213q-93 -182 -263 -277.5t-394 -95.5q-234 0 -408 98.5 t-264 269t-90 390.5zM326 1540l252 289h325l252 -289h-317l-105 137l-104 -137h-303z" />
<glyph unicode="&#x109;" horiz-adv-x="1214" d="M59 553q0 153 68 281t188.5 203t268.5 75q156 0 280 -127v107h273v-445h-240q-19 81 -72 128.5t-127 47.5q-82 0 -136 -71.5t-54 -198.5q0 -121 58 -197.5t145 -76.5q65 0 115.5 37.5t72.5 97.5l275 -166q-74 -131 -205 -204t-297 -73q-274 0 -443.5 160t-169.5 422z M172 1192l252 289h326l251 -289h-317l-104 137l-105 -137h-303z" />
<glyph unicode="&#x10a;" horiz-adv-x="1521" d="M74 729q0 201 91.5 370.5t249.5 268t345 98.5q203 0 348 -145v113h311v-535h-291q-27 100 -98.5 161.5t-173.5 61.5q-117 0 -192.5 -106t-75.5 -281q0 -179 78 -295t196 -116q109 0 186.5 63.5t112.5 169.5l332 -213q-93 -182 -263 -277.5t-394 -95.5q-234 0 -408 98.5 t-264 269t-90 390.5zM545 1716q0 75 54.5 121.5t143.5 46.5q88 0 142.5 -46.5t54.5 -121.5q0 -79 -54.5 -127.5t-142.5 -48.5q-93 0 -145.5 48t-52.5 128z" />
<glyph unicode="&#x10b;" horiz-adv-x="1214" d="M59 553q0 153 68 281t188.5 203t268.5 75q156 0 280 -127v107h273v-445h-240q-19 81 -72 128.5t-127 47.5q-82 0 -136 -71.5t-54 -198.5q0 -121 58 -197.5t145 -76.5q65 0 115.5 37.5t72.5 97.5l275 -166q-74 -131 -205 -204t-297 -73q-274 0 -443.5 160t-169.5 422z M391 1368q0 75 55 121.5t144 46.5q88 0 142 -46.5t54 -121.5q0 -79 -54 -127.5t-142 -48.5q-93 0 -146 48t-53 128z" />
<glyph unicode="&#x10c;" horiz-adv-x="1521" d="M74 729q0 201 91.5 370.5t249.5 268t345 98.5q203 0 348 -145v113h311v-535h-291q-27 100 -98.5 161.5t-173.5 61.5q-117 0 -192.5 -106t-75.5 -281q0 -179 78 -295t196 -116q109 0 186.5 63.5t112.5 169.5l332 -213q-93 -182 -263 -277.5t-394 -95.5q-234 0 -408 98.5 t-264 269t-90 390.5zM334 1829h317l105 -137l104 137h303l-252 -289h-325z" />
<glyph unicode="&#x10d;" horiz-adv-x="1214" d="M59 553q0 153 68 281t188.5 203t268.5 75q156 0 280 -127v107h273v-445h-240q-19 81 -72 128.5t-127 47.5q-82 0 -136 -71.5t-54 -198.5q0 -121 58 -197.5t145 -76.5q65 0 115.5 37.5t72.5 97.5l275 -166q-74 -131 -205 -204t-297 -73q-274 0 -443.5 160t-169.5 422z M180 1481h318l104 -138l105 138h303l-252 -289h-326z" />
<glyph unicode="&#x10e;" horiz-adv-x="1632" d="M61 0v256h123v922h-123v256h684q176 0 325 -49t257.5 -139t170 -224.5t61.5 -298.5q0 -220 -94.5 -384.5t-267.5 -251.5t-402 -87h-734zM397 1829h318l104 -137l105 137h303l-252 -289h-326zM651 268h86q135 0 221 122t86 333q0 208 -94.5 325t-234.5 117h-64v-897z" />
<glyph unicode="&#x10f;" horiz-adv-x="1665" d="M68 553q0 250 137.5 404.5t359.5 154.5q97 0 175 -44t122 -114v279h-123v248h555l-2 -1233h125v-248h-547v145q-47 -77 -133.5 -123.5t-191.5 -46.5q-218 0 -347.5 157t-129.5 421zM516 547q0 -121 50 -194.5t132 -73.5q81 0 131 71.5t50 196.5q0 119 -51 190.5 t-130 71.5q-82 0 -132 -72t-50 -190zM1405 1081l29 400h338l-138 -400h-229z" />
<glyph unicode="&#x110;" horiz-adv-x="1675" d="M61 625v237h166v316h-123v256h684q176 0 325 -49t257.5 -139t170 -224.5t61.5 -298.5q0 -220 -94.5 -384.5t-267.5 -251.5t-402 -87h-734v256h123v369h-166zM694 268h86q135 0 221 122t86 333q0 208 -94.5 325t-234.5 117h-64v-303h195v-237h-195v-357z" />
<glyph unicode="&#x111;" horiz-adv-x="1458" d="M68 532q0 239 137 387t360 148q98 0 176 -43.5t121 -114.5v211h-203v125h203v113h-123v123h555v-236h123v-125h-123l-2 -872h125v-248h-545v145q-47 -77 -134.5 -123.5t-192.5 -46.5q-218 0 -347.5 151t-129.5 406zM516 524q0 -112 50 -178.5t132 -66.5q81 0 131 65.5 t50 181.5q0 109 -51 174.5t-130 65.5q-82 0 -132 -66.5t-50 -175.5z" />
<glyph unicode="&#x112;" horiz-adv-x="1284" d="M61 0v256h123v922h-123v256h1127v-387h-314v135h-223v-305h365v-269h-365v-356h232v160h311v-412h-1133zM268 1571v229h740v-229h-740z" />
<glyph unicode="&#x113;" horiz-adv-x="1296" d="M59 551q0 118 44.5 222t123 179.5t193 119.5t248.5 44q166 0 297 -76t201.5 -204.5t70.5 -284.5q0 -43 -8 -105l-725 -4q25 -89 83 -137.5t140 -48.5q70 0 129.5 27t97.5 71l265 -161q-84 -110 -219.5 -166t-299.5 -56q-291 0 -466 157.5t-175 422.5zM301 1223v229h739 v-229h-739zM498 668h299q0 81 -37.5 129.5t-104.5 48.5q-127 0 -157 -178z" />
<glyph unicode="&#x114;" horiz-adv-x="1284" d="M61 0v256h123v922h-123v256h1127v-387h-314v135h-223v-305h365v-269h-365v-356h232v160h311v-412h-1133zM270 1851h265q0 -129 102 -129q104 0 104 129h265q0 -149 -103 -241t-266 -92q-162 0 -264.5 92t-102.5 241z" />
<glyph unicode="&#x115;" horiz-adv-x="1296" d="M59 551q0 118 44.5 222t123 179.5t193 119.5t248.5 44q166 0 297 -76t201.5 -204.5t70.5 -284.5q0 -43 -8 -105l-725 -4q25 -89 83 -137.5t140 -48.5q70 0 129.5 27t97.5 71l265 -161q-84 -110 -219.5 -166t-299.5 -56q-291 0 -466 157.5t-175 422.5zM303 1503h264 q0 -129 103 -129q104 0 104 129h264q0 -149 -102.5 -241.5t-265.5 -92.5q-162 0 -264.5 92.5t-102.5 241.5zM498 668h299q0 81 -37.5 129.5t-104.5 48.5q-127 0 -157 -178z" />
<glyph unicode="&#x116;" horiz-adv-x="1284" d="M61 0v256h123v922h-123v256h1127v-387h-314v135h-223v-305h365v-269h-365v-356h232v160h311v-412h-1133zM440 1716q0 75 55 121.5t144 46.5q88 0 142.5 -46.5t54.5 -121.5q0 -79 -54.5 -127.5t-142.5 -48.5q-93 0 -146 48t-53 128z" />
<glyph unicode="&#x117;" horiz-adv-x="1296" d="M59 551q0 118 44.5 222t123 179.5t193 119.5t248.5 44q166 0 297 -76t201.5 -204.5t70.5 -284.5q0 -43 -8 -105l-725 -4q25 -89 83 -137.5t140 -48.5q70 0 129.5 27t97.5 71l265 -161q-84 -110 -219.5 -166t-299.5 -56q-291 0 -466 157.5t-175 422.5zM473 1368 q0 75 55 121.5t144 46.5q88 0 142 -46.5t54 -121.5q0 -79 -54 -127.5t-142 -48.5q-93 0 -146 48t-53 128zM498 668h299q0 81 -37.5 129.5t-104.5 48.5q-127 0 -157 -178z" />
<glyph unicode="&#x118;" horiz-adv-x="1284" d="M61 0v256h123v922h-123v256h1127v-387h-314v135h-223v-305h365v-269h-365v-356h232v160h311v-412h-53q-80 -22 -130 -68t-50 -102q0 -30 15.5 -49t41.5 -19q48 0 92 48l100 -156q-42 -49 -111.5 -76t-144.5 -27q-114 0 -188 62t-74 168q0 129 127 219h-758z" />
<glyph unicode="&#x119;" horiz-adv-x="1296" d="M59 551q0 118 44.5 222t123 179.5t193 119.5t248.5 44q166 0 297 -76t201.5 -204.5t70.5 -284.5q0 -43 -8 -105l-725 -4q25 -89 83 -137.5t140 -48.5q70 0 129.5 27t97.5 71l265 -161q-84 -109 -220 -166q-65 -41 -103 -92t-38 -103q0 -31 18 -50.5t46 -19.5q48 0 88 43 l100 -151q-95 -98 -262 -98q-107 0 -180.5 61t-73.5 160q0 104 90 194q-285 5 -455 162t-170 418zM498 668h299q0 81 -37.5 129.5t-104.5 48.5q-127 0 -157 -178z" />
<glyph unicode="&#x11a;" horiz-adv-x="1284" d="M61 0v256h123v922h-123v256h1127v-387h-314v135h-223v-305h365v-269h-365v-356h232v160h311v-412h-1133zM229 1829h318l104 -137l105 137h303l-252 -289h-326z" />
<glyph unicode="&#x11b;" horiz-adv-x="1296" d="M59 551q0 118 44.5 222t123 179.5t193 119.5t248.5 44q166 0 297 -76t201.5 -204.5t70.5 -284.5q0 -43 -8 -105l-725 -4q25 -89 83 -137.5t140 -48.5q70 0 129.5 27t97.5 71l265 -161q-84 -110 -219.5 -166t-299.5 -56q-291 0 -466 157.5t-175 422.5zM262 1481h318 l104 -138l104 138h304l-252 -289h-326zM498 668h299q0 81 -37.5 129.5t-104.5 48.5q-127 0 -157 -178z" />
<glyph unicode="&#x11c;" horiz-adv-x="1650" d="M74 719q0 154 55 293t147.5 238.5t219 157.5t264.5 58q232 0 397 -149v117h313v-471h-296q-35 82 -108 126t-173 44q-136 0 -219.5 -107.5t-83.5 -288.5q0 -196 77 -316t210 -120q113 0 184.5 64.5t85.5 169.5h-242v290h635v-825h-352v164q-177 -193 -432 -193 q-205 0 -361.5 99.5t-238.5 269t-82 379.5zM354 1540l252 289h326l252 -289h-318l-104 137l-105 -137h-303z" />
<glyph unicode="&#x11d;" horiz-adv-x="1454" d="M68 563q0 245 138.5 397t358.5 152q97 0 175 -44t122 -114v133h557v-241h-125l-2 -733q0 -165 -93.5 -283t-254.5 -175.5t-373 -57.5q-225 0 -395 77l84 265q148 -72 309 -72q139 0 221 53.5t82 153.5v78q-48 -70 -135 -114t-192 -44q-217 0 -347 155t-130 414zM211 1192 l252 289h325l252 -289h-317l-105 137l-104 -137h-303zM516 553q0 -120 50 -193t132 -73q81 0 131 71.5t50 194.5q0 115 -51 185.5t-130 70.5q-82 0 -132 -71t-50 -185z" />
<glyph unicode="&#x11e;" horiz-adv-x="1650" d="M74 719q0 154 55 293t147.5 238.5t219 157.5t264.5 58q232 0 397 -149v117h313v-471h-296q-35 82 -108 126t-173 44q-136 0 -219.5 -107.5t-83.5 -288.5q0 -196 77 -316t210 -120q113 0 184.5 64.5t85.5 169.5h-242v290h635v-825h-352v164q-177 -193 -432 -193 q-205 0 -361.5 99.5t-238.5 269t-82 379.5zM403 1851h265q0 -129 102 -129q104 0 104 129h265q0 -149 -103 -241t-266 -92q-162 0 -264.5 92t-102.5 241z" />
<glyph unicode="&#x11f;" horiz-adv-x="1454" d="M68 563q0 245 138.5 397t358.5 152q97 0 175 -44t122 -114v133h557v-241h-125l-2 -733q0 -165 -93.5 -283t-254.5 -175.5t-373 -57.5q-225 0 -395 77l84 265q148 -72 309 -72q139 0 221 53.5t82 153.5v78q-48 -70 -135 -114t-192 -44q-217 0 -347 155t-130 414zM260 1503 h264q0 -129 103 -129q104 0 104 129h264q0 -149 -102.5 -241.5t-265.5 -92.5q-162 0 -264.5 92.5t-102.5 241.5zM516 553q0 -120 50 -193t132 -73q81 0 131 71.5t50 194.5q0 115 -51 185.5t-130 70.5q-82 0 -132 -71t-50 -185z" />
<glyph unicode="&#x120;" horiz-adv-x="1650" d="M74 719q0 154 55 293t147.5 238.5t219 157.5t264.5 58q232 0 397 -149v117h313v-471h-296q-35 82 -108 126t-173 44q-136 0 -219.5 -107.5t-83.5 -288.5q0 -196 77 -316t210 -120q113 0 184.5 64.5t85.5 169.5h-242v290h635v-825h-352v164q-177 -193 -432 -193 q-205 0 -361.5 99.5t-238.5 269t-82 379.5zM573 1716q0 75 55 121.5t144 46.5q88 0 142.5 -46.5t54.5 -121.5q0 -79 -54.5 -127.5t-142.5 -48.5q-93 0 -146 48t-53 128z" />
<glyph unicode="&#x121;" horiz-adv-x="1454" d="M68 563q0 245 138.5 397t358.5 152q97 0 175 -44t122 -114v133h557v-241h-125l-2 -733q0 -165 -93.5 -283t-254.5 -175.5t-373 -57.5q-225 0 -395 77l84 265q148 -72 309 -72q139 0 221 53.5t82 153.5v78q-48 -70 -135 -114t-192 -44q-217 0 -347 155t-130 414zM430 1368 q0 75 55 121.5t144 46.5q88 0 142 -46.5t54 -121.5q0 -79 -54 -127.5t-142 -48.5q-93 0 -146 48t-53 128zM516 553q0 -120 50 -193t132 -73q81 0 131 71.5t50 194.5q0 115 -51 185.5t-130 70.5q-82 0 -132 -71t-50 -185z" />
<glyph unicode="&#x122;" horiz-adv-x="1650" d="M74 719q0 154 55 293t147.5 238.5t219 157.5t264.5 58q232 0 397 -149v117h313v-471h-296q-35 82 -108 126t-173 44q-136 0 -219.5 -107.5t-83.5 -288.5q0 -196 77 -316t210 -120q113 0 184.5 64.5t85.5 169.5h-242v290h635v-825h-352v164q-177 -193 -432 -193 q-205 0 -361.5 99.5t-238.5 269t-82 379.5zM631 -223q0 69 47 116.5t117 47.5q72 0 124 -58.5t52 -144.5q0 -104 -53.5 -194.5t-147.5 -153.5l-74 84q79 66 82 147h-6q-60 0 -100.5 48t-40.5 108z" />
<glyph unicode="&#x123;" horiz-adv-x="1454" d="M68 563q0 245 138.5 397t358.5 152q97 0 175 -44t122 -114v133h557v-241h-125l-2 -733q0 -165 -93.5 -283t-254.5 -175.5t-373 -57.5q-225 0 -395 77l84 265q148 -72 309 -72q139 0 221 53.5t82 153.5v78q-48 -70 -135 -114t-192 -44q-217 0 -347 155t-130 414zM453 1350 q0 105 53.5 195t146.5 153l74 -84q-79 -66 -82 -148h6q61 0 101.5 -47.5t40.5 -107.5q0 -69 -47 -116.5t-117 -47.5q-72 0 -124 58.5t-52 144.5zM516 553q0 -120 50 -193t132 -73q81 0 131 71.5t50 194.5q0 115 -51 185.5t-130 70.5q-82 0 -132 -71t-50 -185z" />
<glyph unicode="&#x124;" horiz-adv-x="1779" d="M61 0v256h123v922h-123v256h713v-256h-123v-283h477v283h-122v256h712v-256h-123v-922h123v-256h-712v256h122v322h-477v-322h123v-256h-713zM475 1538l252 289h326l252 -289h-318l-104 137l-105 -137h-303z" />
<glyph unicode="&#x125;" horiz-adv-x="1466" d="M41 0v248h125v989h-125v246h549v-555q44 77 129.5 127.5t195.5 50.5q181 0 287.5 -101t106.5 -278v-479h125v-248h-656v248h99v407q0 57 -37.5 97.5t-91.5 40.5q-68 0 -109 -42.5t-41 -103.5v-399h98v-248h-655zM424 1540l252 289h325l252 -289h-317l-105 137l-104 -137 h-303z" />
<glyph unicode="&#x126;" horiz-adv-x="1763" d="M61 0v256h123v694h-123v170h123v88h-123v226h713v-226h-123v-88h461v88h-123v226h711v-226h-121v-88h121v-170h-121v-694h121v-256h-711v256h123v324h-461v-324h123v-256h-713zM651 852h461v98h-461v-98z" />
<glyph unicode="&#x127;" horiz-adv-x="1466" d="M41 0v248h125v872h-125v125h125v115h-125v123h549v-238h211v-125h-211v-215q44 77 129.5 127.5t195.5 50.5q181 0 287.5 -100.5t106.5 -277.5v-457h125v-248h-656v248h99v385q0 57 -37.5 97t-91.5 40q-68 0 -109 -42t-41 -103v-377h98v-248h-655z" />
<glyph unicode="&#x128;" horiz-adv-x="835" d="M18 1534q0 134 68 224.5t174 90.5q70 0 165.5 -38.5t127.5 -38.5t51.5 20t22.5 47h184q0 -145 -65 -230t-173 -85q-55 0 -112 19.5t-104.5 39t-80.5 19.5q-32 0 -51 -20.5t-22 -47.5h-185zM61 0v256h123v922h-123v256h713v-256h-123v-922h123v-256h-713z" />
<glyph unicode="&#x129;" horiz-adv-x="772" d="M-35 1186q0 134 68 224.5t174 90.5q54 0 111 -19.5t104.5 -39t77.5 -19.5q32 0 51 20.5t22 47.5h185q0 -145 -65 -230t-173 -85q-55 0 -112 19t-104.5 38.5t-80.5 19.5q-32 0 -51 -20t-22 -47h-185zM49 0v248h125v592h-125v247h557v-839h125v-248h-682z" />
<glyph unicode="&#x12a;" horiz-adv-x="835" d="M49 1571v229h739v-229h-739zM61 0v256h123v922h-123v256h713v-256h-123v-922h123v-256h-713z" />
<glyph unicode="&#x12b;" horiz-adv-x="772" d="M-4 1223v229h739v-229h-739zM49 0v248h125v592h-125v247h557v-839h125v-248h-682z" />
<glyph unicode="&#x12c;" horiz-adv-x="835" d="M51 1851h264q0 -129 103 -129q104 0 104 129h264q0 -149 -102.5 -241t-265.5 -92q-162 0 -264.5 92t-102.5 241zM61 0v256h123v922h-123v256h713v-256h-123v-922h123v-256h-713z" />
<glyph unicode="&#x12d;" horiz-adv-x="772" d="M-2 1503h264q0 -129 103 -129q104 0 104 129h264q0 -149 -102.5 -241.5t-265.5 -92.5q-162 0 -264.5 92.5t-102.5 241.5zM49 0v248h125v592h-125v247h557v-839h125v-248h-682z" />
<glyph unicode="&#x12e;" horiz-adv-x="835" d="M61 0v256h123v922h-123v256h713v-256h-123v-922h123v-256h-76q-80 -22 -130 -68t-50 -102q0 -30 15.5 -49t41.5 -19q49 0 93 48l100 -156q-42 -49 -111.5 -76t-144.5 -27q-114 0 -188 62t-74 168q0 129 127 219h-316z" />
<glyph unicode="&#x12f;" horiz-adv-x="772" d="M49 0v248h125v592h-125v247h557v-839h125v-248h-78q-80 -22 -130 -68t-50 -102q0 -30 15.5 -49t41.5 -19q49 0 93 48l100 -156q-42 -49 -111.5 -76t-144.5 -27q-114 0 -188 62t-74 168q0 129 127 219h-283zM154 1393q0 91 64 148.5t165 57.5t164 -57.5t63 -148.5 q0 -93 -63 -152t-164 -59q-104 0 -166.5 59t-62.5 152z" />
<glyph unicode="&#x130;" horiz-adv-x="835" d="M61 0v256h123v922h-123v256h713v-256h-123v-922h123v-256h-713zM221 1716q0 75 55 121.5t144 46.5q88 0 142 -46.5t54 -121.5q0 -79 -54 -127.5t-142 -48.5q-93 0 -146 48t-53 128z" />
<glyph unicode="&#x131;" horiz-adv-x="772" d="M49 0v248h125v592h-125v247h557v-839h125v-248h-682z" />
<glyph unicode="&#x132;" horiz-adv-x="1728" d="M61 0v256h123v922h-123v256h713v-256h-123v-922h123v-256h-713zM750 -307l36 244q64 -17 127 -19q76 0 123 42.5t47 125.5v1092h-174v256h764v-256h-123v-1104q0 -94 -43.5 -173.5t-116 -132.5t-166.5 -82.5t-196 -29.5q-156 0 -278 37z" />
<glyph unicode="&#x133;" horiz-adv-x="1527" d="M49 0v248h125v592h-125v247h557v-839h125v-248h-682zM154 1393q0 91 64 148.5t165 57.5t164 -57.5t63 -148.5q0 -93 -63 -152t-164 -59q-104 0 -166.5 59t-62.5 152zM741 -129q50 -12 93 -12q50 0 85 31.5t35 86.5v863h-125v247h557v-1122q0 -111 -62 -195t-164.5 -126.5 t-227.5 -42.5q-106 0 -191 10v260zM934 1393q0 91 64 148.5t165 57.5t164.5 -57.5t63.5 -148.5q0 -93 -63.5 -152t-164.5 -59t-165 59.5t-64 151.5z" />
<glyph unicode="&#x134;" horiz-adv-x="892" d="M-86 -307l37 244q64 -17 127 -19q76 0 123 42.5t47 125.5v1092h-174v256h764v-256h-123v-1104q0 -94 -43.5 -173.5t-116 -132.5t-166.5 -82.5t-196 -29.5q-157 0 -279 37zM39 1538l252 289h325l252 -289h-317l-105 137l-104 -137h-303z" />
<glyph unicode="&#x135;" horiz-adv-x="749" d="M-31 -129q50 -12 92 -12q50 0 85.5 31.5t35.5 86.5v863h-123v247h555v-1122q0 -111 -61.5 -195t-164 -126.5t-228.5 -42.5q-106 0 -191 10v260zM-18 1192l251 289h326l252 -289h-317l-105 137l-104 -137h-303z" />
<glyph unicode="&#x136;" horiz-adv-x="1667" d="M61 0v256h123v922h-123v256h697v-256h-107v-406l373 420h-135v242h700v-256h-164l-335 -357l436 -565h129v-256h-768v238h102l-338 497v-479h105v-256h-695zM643 -223q0 69 47 116.5t117 47.5q72 0 124 -58.5t52 -144.5q0 -104 -53.5 -194.5t-147.5 -153.5l-73 84 q79 66 82 147h-7q-60 0 -100.5 48t-40.5 108z" />
<glyph unicode="&#x137;" horiz-adv-x="1452" d="M41 0v248h125v985h-125v248h557v-883l238 268h-115v221h651v-247h-194l-164 -195l280 -397h144v-248h-473l-367 553v-305h90v-248h-647zM569 -223q0 69 47 116.5t117 47.5q72 0 124 -58.5t52 -144.5q0 -105 -53.5 -195t-146.5 -153l-74 84q79 66 82 147h-6 q-61 0 -101.5 48t-40.5 108z" />
<glyph unicode="&#x138;" horiz-adv-x="1460" d="M49 0v248h125v592h-125v247h557v-489l238 268h-115v221h651v-247h-194l-164 -195l281 -397h143v-248h-473l-367 553v-305h90v-248h-647z" />
<glyph unicode="&#x139;" horiz-adv-x="1243" d="M61 0v256h123v922h-123v256h730v-256h-140v-922h234v227h311v-483h-1135zM233 1538l129 305h435l-271 -305h-293z" />
<glyph unicode="&#x13a;" horiz-adv-x="763" d="M41 0v248h125v985h-125v248h557v-1233h125v-248h-682zM203 1581l129 305h434l-270 -305h-293z" />
<glyph unicode="&#x13b;" horiz-adv-x="1243" d="M61 0v256h123v922h-123v256h730v-256h-140v-922h234v227h311v-483h-1135zM537 -223q0 69 46.5 116.5t116.5 47.5q72 0 124.5 -58.5t52.5 -144.5q0 -104 -53.5 -194.5t-147.5 -153.5l-74 84q79 66 82 147h-6q-60 0 -100.5 48t-40.5 108z" />
<glyph unicode="&#x13c;" horiz-adv-x="763" d="M41 0v248h125v985h-125v248h557v-1233h125v-248h-682zM219 -223q0 69 47 116.5t117 47.5q72 0 124 -58.5t52 -144.5q0 -104 -53.5 -194.5t-147.5 -153.5l-73 84q79 66 82 147h-7q-60 0 -100.5 48t-40.5 108z" />
<glyph unicode="&#x13d;" horiz-adv-x="1306" d="M61 0v256h123v922h-123v256h730v-256h-140v-922h234v227h311v-483h-1135zM901 1081l29 400h338l-140 -400h-227z" />
<glyph unicode="&#x13e;" horiz-adv-x="978" d="M41 0v248h125v985h-125v248h557v-1233h125v-248h-682zM719 1081l29 400h337l-137 -400h-229z" />
<glyph unicode="&#x13f;" horiz-adv-x="1349" d="M61 0v256h123v922h-123v256h730v-256h-140v-922h246v197h311v-453h-1147zM870 797q0 89 68.5 155t159.5 66q92 0 157.5 -65.5t65.5 -155.5t-65.5 -156t-157.5 -66q-91 0 -159.5 66.5t-68.5 155.5z" />
<glyph unicode="&#x140;" horiz-adv-x="1273" d="M41 0v248h125v985h-125v248h557v-1233h125v-248h-682zM776 758q0 96 75 167.5t175 71.5q99 0 170.5 -71t71.5 -168q0 -99 -71.5 -170.5t-170.5 -71.5q-100 0 -175 72t-75 170z" />
<glyph unicode="&#x141;" horiz-adv-x="1288" d="M61 471v231l168 66v410h-123v256h730v-256h-140v-232l291 113v-232l-291 -112v-459h234v227h311v-483h-1135v256h123v281z" />
<glyph unicode="&#x142;" horiz-adv-x="868" d="M12 518v227l226 89v399h-125v248h557v-475l198 77v-225l-198 -80v-530h125v-248h-682v248h125v360z" />
<glyph unicode="&#x143;" horiz-adv-x="1777" d="M61 0v256h123v922h-123v256h609l575 -859v603h-123v256h592v-256h-121v-1178h-493l-568 862v-606h123v-256h-594zM729 1540l129 305h434l-270 -305h-293z" />
<glyph unicode="&#x144;" horiz-adv-x="1474" d="M49 0v248h125v592h-125v247h549v-161q44 77 130 128.5t196 51.5q181 0 287 -101t106 -278v-479h125v-248h-656v248h99v407q0 57 -37.5 97.5t-91.5 40.5q-68 0 -109 -42.5t-41 -103.5v-399h99v-248h-656zM618 1192l130 305h434l-271 -305h-293z" />
<glyph unicode="&#x145;" horiz-adv-x="1777" d="M61 0v256h123v922h-123v256h609l575 -859v603h-123v256h592v-256h-121v-1178h-493l-568 862v-606h123v-256h-594zM696 -223q0 69 47 116.5t117 47.5q72 0 124 -58.5t52 -144.5q0 -105 -53.5 -195t-146.5 -153l-74 84q79 66 82 147h-6q-61 0 -101.5 48t-40.5 108z" />
<glyph unicode="&#x146;" horiz-adv-x="1474" d="M49 0v248h125v592h-125v247h549v-161q44 77 130 128.5t196 51.5q181 0 287 -101t106 -278v-479h125v-248h-656v248h99v407q0 57 -37.5 97.5t-91.5 40.5q-68 0 -109 -42.5t-41 -103.5v-399h99v-248h-656zM580 -223q0 69 46.5 116.5t116.5 47.5q72 0 124.5 -58.5 t52.5 -144.5q0 -104 -53.5 -194.5t-147.5 -153.5l-74 84q79 66 82 147h-6q-60 0 -100.5 48t-40.5 108z" />
<glyph unicode="&#x147;" horiz-adv-x="1777" d="M61 0v256h123v922h-123v256h609l575 -859v603h-123v256h592v-256h-121v-1178h-493l-568 862v-606h123v-256h-594zM508 1829h317l105 -137l104 137h303l-252 -289h-325z" />
<glyph unicode="&#x148;" horiz-adv-x="1474" d="M49 0v248h125v592h-125v247h549v-161q44 77 130 128.5t196 51.5q181 0 287 -101t106 -278v-479h125v-248h-656v248h99v407q0 57 -37.5 97.5t-91.5 40.5q-68 0 -109 -42.5t-41 -103.5v-399h99v-248h-656zM397 1481h318l104 -138l105 138h303l-252 -289h-326z" />
<glyph unicode="&#x149;" horiz-adv-x="1769" d="M-57 1413q0 82 52.5 133t135.5 51t142 -65.5t59 -163.5q0 -128 -65.5 -236.5t-186.5 -187.5l-90 98q109 85 121 195h-7q-71 0 -116 54t-45 122zM344 0v248h125v592h-125v247h549v-161q44 77 130 128.5t196 51.5q181 0 287 -101t106 -278v-479h125v-248h-656v248h99v407 q0 57 -37.5 97.5t-91.5 40.5q-68 0 -109 -42.5t-41 -103.5v-399h98v-248h-655z" />
<glyph unicode="&#x14a;" horiz-adv-x="1777" d="M61 0v256h123v922h-123v256h562l622 -791v535h-145v256h616v-256h-123v-1209q0 -167 -118.5 -267.5t-292.5 -100.5q-106 0 -191 10v256q37 -12 92 -12q61 0 102.5 31t41.5 91v23l-695 860v-604h123v-256h-594z" />
<glyph unicode="&#x14b;" horiz-adv-x="1452" d="M49 0v248h125v592h-125v247h549v-161q44 77 130 128.5t196 51.5q181 0 287 -101t106 -278v-762q0 -166 -131 -265t-324 -99q-104 0 -192 10v260q54 -12 92 -12q52 0 87.5 31.5t35.5 86.5v678q0 57 -37.5 97.5t-91.5 40.5q-68 0 -109 -42.5t-41 -103.5v-399h99v-248h-656z " />
<glyph unicode="&#x14c;" horiz-adv-x="1730" d="M74 729q0 160 57 296.5t159.5 233.5t251 152t324.5 55q234 0 414.5 -94.5t278.5 -262t98 -380.5q0 -165 -56 -305.5t-158 -240.5t-250.5 -156t-326.5 -56q-239 0 -419.5 97t-276.5 268.5t-96 392.5zM498 1571v229h739v-229h-739zM588 729q0 -196 75 -314t203 -118 t202.5 118t74.5 314q0 189 -74.5 300.5t-202.5 111.5t-203 -112t-75 -300z" />
<glyph unicode="&#x14d;" horiz-adv-x="1370" d="M59 553q0 163 81 291.5t224 200t322 71.5q271 0 448 -158.5t177 -404.5q0 -170 -79.5 -302.5t-221.5 -206t-324 -73.5q-277 0 -452 162t-175 420zM317 1223v229h740v-229h-740zM508 553q0 -129 47 -206t131 -77q82 0 129 77t47 206q0 120 -47 192t-129 72q-84 0 -131 -72 t-47 -192z" />
<glyph unicode="&#x14e;" horiz-adv-x="1730" d="M74 729q0 160 57 296.5t159.5 233.5t251 152t324.5 55q234 0 414.5 -94.5t278.5 -262t98 -380.5q0 -165 -56 -305.5t-158 -240.5t-250.5 -156t-326.5 -56q-239 0 -419.5 97t-276.5 268.5t-96 392.5zM500 1851h264q0 -129 102 -129q105 0 105 129h264q0 -149 -103 -241 t-266 -92q-162 0 -264 92t-102 241zM588 729q0 -196 75 -314t203 -118t202.5 118t74.5 314q0 189 -74.5 300.5t-202.5 111.5t-203 -112t-75 -300z" />
<glyph unicode="&#x14f;" horiz-adv-x="1370" d="M59 553q0 163 81 291.5t224 200t322 71.5q271 0 448 -158.5t177 -404.5q0 -170 -79.5 -302.5t-221.5 -206t-324 -73.5q-277 0 -452 162t-175 420zM319 1503h265q0 -129 102 -129q105 0 105 129h264q0 -149 -103 -241.5t-266 -92.5q-162 0 -264.5 92.5t-102.5 241.5z M508 553q0 -129 47 -206t131 -77q82 0 129 77t47 206q0 120 -47 192t-129 72q-84 0 -131 -72t-47 -192z" />
<glyph unicode="&#x150;" horiz-adv-x="1730" d="M74 729q0 160 57 296.5t159.5 233.5t251 152t324.5 55q234 0 414.5 -94.5t278.5 -262t98 -380.5q0 -165 -56 -305.5t-158 -240.5t-250.5 -156t-326.5 -56q-239 0 -419.5 97t-276.5 268.5t-96 392.5zM465 1540l106 305h369l-207 -305h-268zM588 729q0 -196 75 -314 t203 -118t202.5 118t74.5 314q0 189 -74.5 300.5t-202.5 111.5t-203 -112t-75 -300zM901 1540l107 305h368l-207 -305h-268z" />
<glyph unicode="&#x151;" horiz-adv-x="1370" d="M59 553q0 163 81 291.5t224 200t322 71.5q271 0 448 -158.5t177 -404.5q0 -170 -79.5 -302.5t-221.5 -206t-324 -73.5q-277 0 -452 162t-175 420zM285 1192l106 305h369l-207 -305h-268zM508 553q0 -129 47 -206t131 -77q82 0 129 77t47 206q0 120 -47 192t-129 72 q-84 0 -131 -72t-47 -192zM721 1192l106 305h369l-207 -305h-268z" />
<glyph unicode="&#x152;" horiz-adv-x="2275" d="M74 729q0 213 98 380.5t278.5 262t413.5 94.5q126 0 244 -32h1071v-387h-313v118h-365q87 -128 117 -278h389v-287h-381q-32 -192 -131 -332h377v144h313v-412h-1089q-113 -29 -232 -29q-238 0 -418 97t-276 268.5t-96 392.5zM543 678q22 -222 120.5 -340.5t247.5 -95.5 q156 23 223 168.5t44 373.5q-22 217 -111.5 325t-247.5 85q-149 -23 -223.5 -163.5t-52.5 -352.5z" />
<glyph unicode="&#x153;" horiz-adv-x="2099" d="M59 555q0 162 80.5 290t222.5 199.5t320 71.5q120 0 223.5 -45.5t179.5 -128.5q77 80 180 127t214 47q167 0 296 -75.5t197 -203t68 -284.5q0 -46 -8 -104l-727 -5q25 -89 84 -138.5t139 -49.5q71 0 131 26.5t98 71.5l264 -161q-84 -110 -218 -166t-296 -56 q-124 0 -233.5 46.5t-188.5 129.5q-159 -176 -403 -176q-276 0 -449.5 162.5t-173.5 421.5zM508 555q0 -131 46 -208t128 -77t129 77.5t47 207.5q0 118 -47 189t-129 71t-128 -70.5t-46 -189.5zM1300 670h299q0 81 -37.5 128.5t-105.5 47.5q-126 0 -156 -176z" />
<glyph unicode="&#x154;" horiz-adv-x="1568" d="M61 0v256h123v922h-123v256h791q153 0 277 -48.5t199 -143.5t75 -220q0 -120 -78.5 -217.5t-194.5 -140.5l271 -408h158v-256h-527l-305 584h-76v-328h105v-256h-695zM555 1540l129 305h434l-270 -305h-293zM651 805h62q86 0 141 51t55 143q0 90 -53 140.5t-139 50.5h-66 v-385z" />
<glyph unicode="&#x155;" horiz-adv-x="1058" d="M49 0v248h125v592h-125v247h549v-251q40 116 126 198t194 82q70 0 129 -12l-58 -432q-109 41 -211 41q-80 0 -126 -34.5t-46 -98.5v-332h152v-248h-709zM459 1192l129 305h434l-270 -305h-293z" />
<glyph unicode="&#x156;" horiz-adv-x="1568" d="M61 0v256h123v922h-123v256h791q153 0 277 -48.5t199 -143.5t75 -220q0 -120 -78.5 -217.5t-194.5 -140.5l271 -408h158v-256h-527l-305 584h-76v-328h105v-256h-695zM643 -223q0 69 47 116.5t117 47.5q72 0 124 -58.5t52 -144.5q0 -104 -53.5 -194.5t-147.5 -153.5 l-73 84q79 66 82 147h-7q-60 0 -100.5 48t-40.5 108zM651 805h62q86 0 141 51t55 143q0 90 -53 140.5t-139 50.5h-66v-385z" />
<glyph unicode="&#x157;" horiz-adv-x="1058" d="M49 0v248h125v592h-125v247h549v-251q40 116 126 198t194 82q70 0 129 -12l-58 -432q-109 41 -211 41q-80 0 -126 -34.5t-46 -98.5v-332h152v-248h-709zM242 -223q0 69 47 116.5t117 47.5q72 0 124 -58.5t52 -144.5q0 -104 -53.5 -194.5t-147.5 -153.5l-74 84 q79 66 82 147h-6q-60 0 -100.5 48t-40.5 108z" />
<glyph unicode="&#x158;" horiz-adv-x="1568" d="M61 0v256h123v922h-123v256h791q153 0 277 -48.5t199 -143.5t75 -220q0 -120 -78.5 -217.5t-194.5 -140.5l271 -408h158v-256h-527l-305 584h-76v-328h105v-256h-695zM334 1829h317l105 -137l104 137h303l-252 -289h-325zM651 805h62q86 0 141 51t55 143q0 90 -53 140.5 t-139 50.5h-66v-385z" />
<glyph unicode="&#x159;" horiz-adv-x="1058" d="M49 0v248h125v592h-125v247h549v-251q40 116 126 198t194 82q70 0 129 -12l-58 -432q-109 41 -211 41q-80 0 -126 -34.5t-46 -98.5v-332h152v-248h-709zM238 1481h317l104 -138l105 138h303l-252 -289h-326z" />
<glyph unicode="&#x15a;" horiz-adv-x="1349" d="M88 0v496h287q31 -99 109 -157t180 -58q62 0 99.5 30.5t37.5 75.5q0 33 -24.5 59.5t-65.5 46.5t-94.5 39.5t-112.5 41.5t-117.5 48t-112 64.5t-94.5 86t-65.5 116.5t-24.5 153q0 178 138 298t350 120q189 0 325 -129v103h314v-451h-289q-25 84 -94 133t-162 49 q-44 0 -74.5 -26t-30.5 -68q0 -30 24.5 -53.5t65.5 -41t94.5 -34.5t112.5 -37.5t117.5 -45.5t112 -63.5t94.5 -87t65.5 -119.5t24.5 -157q0 -197 -149 -329t-377 -132q-206 0 -353 144v-115h-311zM442 1540l129 305h435l-271 -305h-293z" />
<glyph unicode="&#x15b;" horiz-adv-x="1173" d="M82 -4v375h244q37 -69 106.5 -112.5t153.5 -43.5q42 0 67 23.5t25 60.5q0 27 -33 47.5t-85 36.5t-115.5 34t-127 46t-115.5 65t-85 99t-33 141q0 150 108 249t279 99t303 -104v84h273v-342h-244q-36 57 -99.5 93t-136.5 36q-35 0 -57.5 -21t-22.5 -51q0 -28 33.5 -48 t87 -35t118 -31.5t129.5 -43.5t118.5 -64.5t87 -101.5t33.5 -147q0 -159 -119 -264t-297 -105q-183 0 -324 115v-90h-272zM360 1192l129 305h435l-271 -305h-293z" />
<glyph unicode="&#x15c;" horiz-adv-x="1349" d="M88 0v496h287q31 -99 109 -157t180 -58q62 0 99.5 30.5t37.5 75.5q0 33 -24.5 59.5t-65.5 46.5t-94.5 39.5t-112.5 41.5t-117.5 48t-112 64.5t-94.5 86t-65.5 116.5t-24.5 153q0 178 138 298t350 120q189 0 325 -129v103h314v-451h-289q-25 84 -94 133t-162 49 q-44 0 -74.5 -26t-30.5 -68q0 -30 24.5 -53.5t65.5 -41t94.5 -34.5t112.5 -37.5t117.5 -45.5t112 -63.5t94.5 -87t65.5 -119.5t24.5 -157q0 -197 -149 -329t-377 -132q-206 0 -353 144v-115h-311zM213 1540l252 289h326l251 -289h-317l-104 137l-105 -137h-303z" />
<glyph unicode="&#x15d;" horiz-adv-x="1173" d="M82 -4v375h244q37 -69 106.5 -112.5t153.5 -43.5q42 0 67 23.5t25 60.5q0 27 -33 47.5t-85 36.5t-115.5 34t-127 46t-115.5 65t-85 99t-33 141q0 150 108 249t279 99t303 -104v84h273v-342h-244q-36 57 -99.5 93t-136.5 36q-35 0 -57.5 -21t-22.5 -51q0 -28 33.5 -48 t87 -35t118 -31.5t129.5 -43.5t118.5 -64.5t87 -101.5t33.5 -147q0 -159 -119 -264t-297 -105q-183 0 -324 115v-90h-272zM131 1192l252 289h326l252 -289h-318l-104 137l-105 -137h-303z" />
<glyph unicode="&#x15e;" horiz-adv-x="1349" d="M88 0v496h287q31 -99 109 -157t180 -58q62 0 99.5 30.5t37.5 75.5q0 33 -24.5 59.5t-65.5 46.5t-94.5 39.5t-112.5 41.5t-117.5 48t-112 64.5t-94.5 86t-65.5 116.5t-24.5 153q0 178 138 298t350 120q189 0 325 -129v103h314v-451h-289q-25 84 -94 133t-162 49 q-44 0 -74.5 -26t-30.5 -68q0 -30 24.5 -53.5t65.5 -41t94.5 -34.5t112.5 -37.5t117.5 -45.5t112 -63.5t94.5 -87t65.5 -119.5t24.5 -157q0 -182 -130 -311t-335 -148l-12 -69h6q78 0 131 -49.5t53 -116.5q0 -112 -83 -172t-214 -60q-79 0 -147 33l41 168q31 -22 88 -22 q30 0 48.5 14t18.5 41q0 25 -19.5 39t-51.5 14q-38 0 -68 -12l43 201q-141 29 -248 133v-115h-311z" />
<glyph unicode="&#x15f;" horiz-adv-x="1173" d="M82 -4v375h244q37 -69 106.5 -112.5t153.5 -43.5q42 0 67 23.5t25 60.5q0 27 -33 47.5t-85 36.5t-115.5 34t-127 46t-115.5 65t-85 99t-33 141q0 150 108 249t279 99t303 -104v84h273v-342h-244q-36 57 -99.5 93t-136.5 36q-35 0 -57.5 -21t-22.5 -51q0 -28 33.5 -48 t87 -35t118 -31.5t129.5 -43.5t118.5 -64.5t87 -101.5t33.5 -147q0 -147 -103 -249.5t-262 -117.5l-12 -69h6q78 0 131 -49.5t53 -116.5q0 -112 -83 -172t-214 -60q-79 0 -147 33l41 168q31 -22 88 -22q30 0 48.5 14t18.5 41q0 25 -19.5 39t-51.5 14q-38 0 -68 -12l43 203 q-113 25 -209 102v-90h-272z" />
<glyph unicode="&#x160;" horiz-adv-x="1349" d="M88 0v496h287q31 -99 109 -157t180 -58q62 0 99.5 30.5t37.5 75.5q0 33 -24.5 59.5t-65.5 46.5t-94.5 39.5t-112.5 41.5t-117.5 48t-112 64.5t-94.5 86t-65.5 116.5t-24.5 153q0 178 138 298t350 120q189 0 325 -129v103h314v-451h-289q-25 84 -94 133t-162 49 q-44 0 -74.5 -26t-30.5 -68q0 -30 24.5 -53.5t65.5 -41t94.5 -34.5t112.5 -37.5t117.5 -45.5t112 -63.5t94.5 -87t65.5 -119.5t24.5 -157q0 -197 -149 -329t-377 -132q-206 0 -353 144v-115h-311zM221 1829h318l104 -137l105 137h303l-252 -289h-326z" />
<glyph unicode="&#x161;" horiz-adv-x="1173" d="M82 -4v375h244q37 -69 106.5 -112.5t153.5 -43.5q42 0 67 23.5t25 60.5q0 27 -33 47.5t-85 36.5t-115.5 34t-127 46t-115.5 65t-85 99t-33 141q0 150 108 249t279 99t303 -104v84h273v-342h-244q-36 57 -99.5 93t-136.5 36q-35 0 -57.5 -21t-22.5 -51q0 -28 33.5 -48 t87 -35t118 -31.5t129.5 -43.5t118.5 -64.5t87 -101.5t33.5 -147q0 -159 -119 -264t-297 -105q-183 0 -324 115v-90h-272zM139 1481h318l104 -138l105 138h303l-252 -289h-326z" />
<glyph unicode="&#x162;" horiz-adv-x="1495" d="M35 956v478h1425v-478h-307v226h-172v-926h166v-256h-281l-16 -96h6q78 0 131 -49.5t53 -116.5q0 -112 -83 -172t-214 -60q-79 0 -147 33l41 168q31 -22 88 -22q31 0 49.5 14t18.5 41q0 25 -20 39t-52 14q-38 0 -68 -12l47 219h-352v256h166v926h-172v-226h-307z" />
<glyph unicode="&#x163;" horiz-adv-x="870" d="M27 840v247h133v254h432v-254h211v-247h-211v-455q0 -57 35 -92t88 -35q56 0 112 16v-264q-107 -21 -213 -24l-14 -82h6q78 0 131.5 -49.5t53.5 -116.5q0 -112 -83 -172t-214 -60q-80 0 -148 33l41 168q31 -22 88 -22q31 0 49.5 14t18.5 41q0 25 -20 39t-52 14 q-38 0 -68 -12l48 219q-142 32 -216.5 128.5t-74.5 246.5v465h-133z" />
<glyph unicode="&#x164;" horiz-adv-x="1495" d="M35 956v478h1425v-478h-307v226h-172v-926h166v-256h-799v256h166v926h-172v-226h-307zM340 1829h317l105 -137l104 137h303l-251 -289h-326z" />
<glyph unicode="&#x165;" horiz-adv-x="958" d="M27 840v247h133v254h432v-254h211v-247h-211v-455q0 -57 35 -92t88 -35q56 0 112 16v-264q-117 -24 -231 -24q-212 0 -324 102t-112 287v465h-133zM686 1190l29 401h338l-140 -401h-227z" />
<glyph unicode="&#x166;" horiz-adv-x="1495" d="M35 956v478h1425v-478h-307v226h-172v-394h203v-213h-203v-319h166v-256h-799v256h166v319h-229v213h229v394h-172v-226h-307z" />
<glyph unicode="&#x167;" horiz-adv-x="870" d="M27 496v190h133v154h-133v247h133v254h432v-254h211v-247h-211v-154h211v-190h-211v-111q0 -57 35 -92t88 -35q56 0 112 16v-264q-117 -24 -231 -24q-212 0 -324 102t-112 287v121h-133z" />
<glyph unicode="&#x168;" horiz-adv-x="1669" d="M47 1178v256h707v-256h-121v-680q0 -94 53.5 -150.5t149.5 -56.5q95 0 147.5 56.5t52.5 150.5v680h-121v256h707v-256h-119v-664q0 -243 -184.5 -394t-482.5 -151q-299 0 -484.5 151t-185.5 394v664h-119zM434 1534q0 134 68 224.5t174 90.5q70 0 165.5 -38.5 t127.5 -38.5t51 20t22 47h185q0 -145 -65 -230t-173 -85q-55 0 -112 19.5t-104.5 39t-80.5 19.5q-32 0 -51.5 -20.5t-22.5 -47.5h-184z" />
<glyph unicode="&#x169;" horiz-adv-x="1439" d="M27 840v247h555v-653q0 -61 32.5 -99t83.5 -38q67 0 105.5 39.5t38.5 105.5v398h-125v247h557v-839h123v-248h-547v162q-49 -80 -139.5 -130t-200.5 -50q-169 0 -264.5 100t-95.5 280v478h-123zM285 1186q0 134 67.5 224.5t173.5 90.5q54 0 111 -19.5t104.5 -39 t77.5 -19.5q32 0 51.5 20.5t22.5 47.5h184q0 -145 -64.5 -230t-172.5 -85q-55 0 -112 19t-104.5 38.5t-80.5 19.5q-32 0 -51.5 -20t-22.5 -47h-184z" />
<glyph unicode="&#x16a;" horiz-adv-x="1669" d="M47 1178v256h707v-256h-121v-680q0 -94 53.5 -150.5t149.5 -56.5q95 0 147.5 56.5t52.5 150.5v680h-121v256h707v-256h-119v-664q0 -243 -184.5 -394t-482.5 -151q-299 0 -484.5 151t-185.5 394v664h-119zM465 1571v229h739v-229h-739z" />
<glyph unicode="&#x16b;" horiz-adv-x="1439" d="M27 840v247h555v-653q0 -61 32.5 -99t83.5 -38q67 0 105.5 39.5t38.5 105.5v398h-125v247h557v-839h123v-248h-547v162q-49 -80 -139.5 -130t-200.5 -50q-169 0 -264.5 100t-95.5 280v478h-123zM315 1223v229h740v-229h-740z" />
<glyph unicode="&#x16c;" horiz-adv-x="1669" d="M47 1178v256h707v-256h-121v-680q0 -94 53.5 -150.5t149.5 -56.5q95 0 147.5 56.5t52.5 150.5v680h-121v256h707v-256h-119v-664q0 -243 -184.5 -394t-482.5 -151q-299 0 -484.5 151t-185.5 394v664h-119zM467 1851h264q0 -129 103 -129q104 0 104 129h264 q0 -149 -102.5 -241t-265.5 -92q-162 0 -264.5 92t-102.5 241z" />
<glyph unicode="&#x16d;" horiz-adv-x="1439" d="M27 840v247h555v-653q0 -61 32.5 -99t83.5 -38q67 0 105.5 39.5t38.5 105.5v398h-125v247h557v-839h123v-248h-547v162q-49 -80 -139.5 -130t-200.5 -50q-169 0 -264.5 100t-95.5 280v478h-123zM317 1503h265q0 -129 102 -129q104 0 104 129h265q0 -149 -103 -241.5 t-266 -92.5q-162 0 -264.5 92.5t-102.5 241.5z" />
<glyph unicode="&#x16e;" horiz-adv-x="1669" d="M47 1178v256h707v-256h-121v-680q0 -94 53.5 -150.5t149.5 -56.5q95 0 147.5 56.5t52.5 150.5v680h-121v256h707v-256h-119v-664q0 -243 -184.5 -394t-482.5 -151q-299 0 -484.5 151t-185.5 394v664h-119zM549 1755q0 102 81 167t204 65q124 0 205 -65t81 -167 t-81.5 -168.5t-204.5 -66.5q-122 0 -203.5 66.5t-81.5 168.5zM741 1753q0 -37 26 -60.5t67 -23.5q42 0 68 23.5t26 60.5t-26 60.5t-68 23.5q-41 0 -67 -23.5t-26 -60.5z" />
<glyph unicode="&#x16f;" horiz-adv-x="1439" d="M27 840v247h555v-653q0 -61 32.5 -99t83.5 -38q67 0 105.5 39.5t38.5 105.5v398h-125v247h557v-839h123v-248h-547v162q-49 -80 -139.5 -130t-200.5 -50q-169 0 -264.5 100t-95.5 280v478h-123zM399 1407q0 102 81 166.5t204 64.5q124 0 205.5 -64.5t81.5 -166.5 t-82 -169t-205 -67q-122 0 -203.5 67t-81.5 169zM592 1405q0 -37 25.5 -60.5t66.5 -23.5q42 0 68 23.5t26 60.5t-26 60.5t-68 23.5q-41 0 -66.5 -23.5t-25.5 -60.5z" />
<glyph unicode="&#x170;" horiz-adv-x="1669" d="M47 1178v256h707v-256h-121v-680q0 -94 53.5 -150.5t149.5 -56.5q95 0 147.5 56.5t52.5 150.5v680h-121v256h707v-256h-119v-664q0 -243 -184.5 -394t-482.5 -151q-299 0 -484.5 151t-185.5 394v664h-119zM432 1540l107 305h368l-207 -305h-268zM868 1540l107 305h368 l-206 -305h-269z" />
<glyph unicode="&#x171;" horiz-adv-x="1439" d="M27 840v247h555v-653q0 -61 32.5 -99t83.5 -38q67 0 105.5 39.5t38.5 105.5v398h-125v247h557v-839h123v-248h-547v162q-49 -80 -139.5 -130t-200.5 -50q-169 0 -264.5 100t-95.5 280v478h-123zM283 1192l106 305h369l-207 -305h-268zM719 1192l106 305h369l-207 -305 h-268z" />
<glyph unicode="&#x172;" horiz-adv-x="1669" d="M47 1178v256h707v-256h-121v-680q0 -94 53.5 -150.5t149.5 -56.5q95 0 147.5 56.5t52.5 150.5v680h-121v256h707v-256h-119v-664q0 -187 -113.5 -323.5t-310.5 -190.5q-80 -22 -130 -68t-50 -102q0 -30 15.5 -49t41.5 -19q49 0 93 48l100 -156q-42 -49 -111.5 -76 t-144.5 -27q-114 0 -188 62t-74 168q0 113 94 194q-254 28 -406.5 174t-152.5 365v664h-119z" />
<glyph unicode="&#x173;" horiz-adv-x="1439" d="M27 840v247h555v-653q0 -61 32.5 -99t83.5 -38q67 0 105.5 39.5t38.5 105.5v398h-125v247h557v-839h123v-248h-103q-80 -22 -130 -68t-50 -102q0 -30 15.5 -49t41.5 -19q49 0 93 48l100 -156q-42 -49 -111.5 -76t-144.5 -27q-114 0 -188 62t-74 168q0 129 127 219h-2 l-107 152q-54 -76 -147 -123t-207 -47q-169 0 -264.5 100t-95.5 280v478h-123z" />
<glyph unicode="&#x174;" horiz-adv-x="2408" d="M6 1178v256h756v-256h-150l168 -844l221 1100h502l228 -1100l165 844h-151v256h657v-256h-133l-291 -1178h-553l-213 901l-211 -901h-548l-312 1178h-135zM838 1540l252 289h325l252 -289h-317l-105 137l-104 -137h-303z" />
<glyph unicode="&#x175;" horiz-adv-x="2029" d="M14 840v247h621v-247h-100l104 -586l174 833h463l182 -825l101 578h-105v247h561v-247h-108l-215 -840h-508l-168 684l-164 -684h-500l-227 840h-111zM606 1192l252 289h326l252 -289h-318l-104 137l-105 -137h-303z" />
<glyph unicode="&#x176;" horiz-adv-x="1515" d="M16 1178v256h723v-228h-116l198 -364l201 364h-117v228h596v-256h-139l-365 -592v-330h158v-256h-784v256h159v322l-376 600h-138zM393 1540l252 289h326l252 -289h-318l-104 137l-105 -137h-303z" />
<glyph unicode="&#x177;" horiz-adv-x="1400" d="M14 840v247h658v-247h-94l155 -557l154 557h-99v247h598v-247h-126l-297 -801q-67 -183 -246 -314t-389 -131q-108 0 -197 21v260q56 -18 125 -18q68 0 127 29.5t84 76.5l18 35l-340 842h-131zM311 1192l252 289h326l252 -289h-318l-104 137l-105 -137h-303z" />
<glyph unicode="&#x178;" horiz-adv-x="1515" d="M16 1178v256h723v-228h-116l198 -364l201 364h-117v228h596v-256h-139l-365 -592v-330h158v-256h-784v256h159v322l-376 600h-138zM358 1718q0 74 53.5 122t139.5 48q84 0 137 -48t53 -122q0 -78 -52.5 -127t-137.5 -49q-90 0 -141.5 48.5t-51.5 127.5zM874 1718 q0 74 54.5 122t138.5 48t137 -48t53 -122q0 -77 -53 -126.5t-137 -49.5q-89 0 -141 49t-52 127z" />
<glyph unicode="&#x179;" d="M55 0v229l641 955h-303v-203h-311v453h1178v-228l-642 -956h353v237h313v-487h-1229zM477 1540l129 305h434l-270 -305h-293z" />
<glyph unicode="&#x17a;" horiz-adv-x="1173" d="M70 0v203l497 645h-217v-119h-264v358h993v-202l-493 -645h248v135h262v-375h-1026zM393 1192l129 305h434l-270 -305h-293z" />
<glyph unicode="&#x17b;" d="M55 0v229l641 955h-303v-203h-311v453h1178v-228l-642 -956h353v237h313v-487h-1229zM467 1716q0 75 55 121.5t144 46.5q88 0 142 -46.5t54 -121.5q0 -79 -54 -127.5t-142 -48.5q-93 0 -146 48t-53 128z" />
<glyph unicode="&#x17c;" horiz-adv-x="1173" d="M70 0v203l497 645h-217v-119h-264v358h993v-202l-493 -645h248v135h262v-375h-1026zM383 1368q0 75 55 121.5t144 46.5q88 0 142 -46.5t54 -121.5q0 -79 -54 -127.5t-142 -48.5q-93 0 -146 48t-53 128z" />
<glyph unicode="&#x17d;" d="M55 0v229l641 955h-303v-203h-311v453h1178v-228l-642 -956h353v237h313v-487h-1229zM256 1829h317l105 -137l104 137h303l-251 -289h-326z" />
<glyph unicode="&#x17e;" horiz-adv-x="1173" d="M70 0v203l497 645h-217v-119h-264v358h993v-202l-493 -645h248v135h262v-375h-1026zM172 1481h317l105 -138l104 138h303l-251 -289h-326z" />
<glyph unicode="&#x192;" horiz-adv-x="1073" d="M-104 -362l41 253q47 -28 100 -28q55 0 91.5 36t43.5 101l90 653h-160v248h193l29 178q67 387 510 387q105 0 208 -28l-41 -256q-50 26 -106 26q-57 0 -94 -38.5t-47 -112.5l-23 -156h207v-248h-240l-90 -680q-13 -98 -58.5 -170.5t-116.5 -115.5t-156.5 -63.5 t-186.5 -20.5q-105 0 -194 35z" />
<glyph unicode="&#x1fa;" horiz-adv-x="1662" d="M6 0v256h131l428 1137q-49 55 -49 127q0 98 86 159.5t217 61.5q130 0 215.5 -62t85.5 -159q0 -61 -35 -111l435 -1153h137v-256h-739v256h122l-34 127h-455l-35 -127h121v-256h-631zM606 1798l170 227h412l-289 -227h-293zM633 674h291l-146 444zM721 1518 q0 -35 27 -57.5t71 -22.5q43 0 69.5 22.5t26.5 57.5t-26.5 57t-69.5 22q-44 0 -71 -22t-27 -57z" />
<glyph unicode="&#x1fb;" d="M66 328q0 162 126.5 252t327.5 90q128 0 238 -45v49q0 70 -49 112.5t-134 42.5q-170 0 -348 -73l-102 248q270 110 557 110q227 0 366.5 -115t139.5 -305v-446h125v-248h-531l-18 96q-47 -56 -129 -90.5t-168 -34.5q-186 0 -293.5 97t-107.5 260zM432 1364q0 93 73 151 t183 58q112 0 185 -58t73 -151q0 -92 -73.5 -151.5t-184.5 -59.5q-109 0 -182.5 59.5t-73.5 151.5zM510 346q0 -49 35.5 -84t91.5 -35t91.5 33.5t35.5 85.5q0 50 -34.5 82.5t-92.5 32.5q-57 0 -92 -34t-35 -81zM520 1599l117 275h391l-244 -275h-264zM606 1362 q0 -33 23 -54.5t59 -21.5q38 0 62 21.5t24 54.5q0 34 -24 55t-62 21q-37 0 -59.5 -21t-22.5 -55z" />
<glyph unicode="&#x1fc;" horiz-adv-x="2113" d="M0 0v256h139l649 1178h1229v-396h-311v144h-225v-318h364v-274h-364v-338h231v151h311v-403h-1130v256h121v334h-328l-164 -334h129v-256h-651zM801 815h213v428zM1157 1540l129 305h434l-270 -305h-293z" />
<glyph unicode="&#x1fd;" horiz-adv-x="1996" d="M66 328q0 162 126.5 252t327.5 90q128 0 238 -45v57q0 68 -48.5 107.5t-134.5 39.5q-170 0 -348 -73l-102 248q263 110 541 110q190 0 333 -127q168 129 367 129q167 0 298.5 -76t202 -204.5t70.5 -284.5q0 -44 -8 -102l-735 -5q25 -88 86.5 -138t144.5 -50q72 0 133 27 t97 71l264 -161q-84 -110 -219.5 -166t-300.5 -56q-266 0 -443 156q-169 -156 -424 -156q-221 0 -343.5 96.5t-122.5 260.5zM510 346q0 -49 37 -84t94 -35q59 0 95 33.5t36 83.5q0 52 -36 84.5t-95 32.5q-58 0 -94.5 -34t-36.5 -81zM825 1192l129 305h435l-271 -305h-293z M1188 670h309q0 80 -37.5 128t-105.5 48q-70 0 -110.5 -42.5t-55.5 -133.5z" />
<glyph unicode="&#x1fe;" horiz-adv-x="1730" d="M74 729q0 160 57 296.5t159.5 233.5t251 152t324.5 55q224 0 406 -90l98 121l164 -139l-88 -107q102 -97 156.5 -231t54.5 -291q0 -165 -56 -305.5t-158 -240.5t-250.5 -156t-326.5 -56q-227 0 -401 88l-100 -120l-164 139l88 106q-104 100 -159.5 240t-55.5 305z M588 729q0 -84 16 -162l422 512q-68 62 -160 62q-128 0 -203 -112t-75 -300zM682 1540l129 305h434l-270 -305h-293zM711 358q67 -61 155 -61q128 0 202.5 118t74.5 314q0 69 -13 139z" />
<glyph unicode="&#x1ff;" horiz-adv-x="1370" d="M59 553q0 163 81 291.5t224 200t322 71.5q172 0 305 -65l68 82l125 -105l-56 -65q88 -76 135.5 -181t47.5 -229q0 -170 -79.5 -302.5t-221.5 -206t-324 -73.5q-177 0 -317 70l-90 -109l-125 105l79 96q-174 160 -174 420zM481 1192l129 305h434l-270 -305h-293zM508 553 q0 -43 6 -80l260 315q-40 29 -88 29q-84 0 -131 -72t-47 -192zM588 307q40 -37 98 -37q82 0 129 77t47 206q0 41 -6 78z" />
<glyph unicode="&#x218;" horiz-adv-x="1349" d="M88 0v496h287q31 -99 109 -157t180 -58q62 0 99.5 30.5t37.5 75.5q0 33 -24.5 59.5t-65.5 46.5t-94.5 39.5t-112.5 41.5t-117.5 48t-112 64.5t-94.5 86t-65.5 116.5t-24.5 153q0 178 138 298t350 120q189 0 325 -129v103h314v-451h-289q-25 84 -94 133t-162 49 q-44 0 -74.5 -26t-30.5 -68q0 -30 24.5 -53.5t65.5 -41t94.5 -34.5t112.5 -37.5t117.5 -45.5t112 -63.5t94.5 -87t65.5 -119.5t24.5 -157q0 -197 -149 -329t-377 -132q-206 0 -353 144v-115h-311zM532 -223q0 69 47 116.5t117 47.5q72 0 124 -58.5t52 -144.5 q0 -105 -53.5 -195t-146.5 -153l-74 84q79 66 82 147h-6q-61 0 -101.5 48t-40.5 108z" />
<glyph unicode="&#x219;" horiz-adv-x="1173" d="M82 -4v375h244q37 -69 106.5 -112.5t153.5 -43.5q42 0 67 23.5t25 60.5q0 27 -33 47.5t-85 36.5t-115.5 34t-127 46t-115.5 65t-85 99t-33 141q0 150 108 249t279 99t303 -104v84h273v-342h-244q-36 57 -99.5 93t-136.5 36q-35 0 -57.5 -21t-22.5 -51q0 -28 33.5 -48 t87 -35t118 -31.5t129.5 -43.5t118.5 -64.5t87 -101.5t33.5 -147q0 -159 -119 -264t-297 -105q-183 0 -324 115v-90h-272zM449 -223q0 69 46.5 116.5t116.5 47.5q72 0 124 -58.5t52 -144.5q0 -105 -53.5 -195t-146.5 -153l-74 84q79 66 82 147h-6q-60 0 -100.5 48t-40.5 108 z" />
<glyph unicode="&#x21a;" horiz-adv-x="1495" d="M35 956v478h1425v-478h-307v226h-172v-926h166v-256h-799v256h166v926h-172v-226h-307zM582 -223q0 69 46.5 116.5t116.5 47.5q72 0 124.5 -58.5t52.5 -144.5q0 -104 -53.5 -194.5t-147.5 -153.5l-74 84q79 66 82 147h-6q-60 0 -100.5 48t-40.5 108z" />
<glyph unicode="&#x21b;" horiz-adv-x="870" d="M27 840v247h133v254h432v-254h211v-247h-211v-455q0 -57 35 -92t88 -35q56 0 112 16v-264q-117 -24 -231 -24q-212 0 -324 102t-112 287v465h-133zM332 -223q0 69 47 116.5t117 47.5q72 0 124 -58.5t52 -144.5q0 -104 -53.5 -194.5t-147.5 -153.5l-74 84q79 66 82 147h-6 q-60 0 -100.5 48t-40.5 108z" />
<glyph unicode="&#x237;" horiz-adv-x="749" d="M-31 -129q50 -12 92 -12q50 0 85.5 31.5t35.5 86.5v863h-123v247h555v-1122q0 -111 -61.5 -195t-164 -126.5t-228.5 -42.5q-106 0 -191 10v260z" />
<glyph unicode="&#x2c6;" horiz-adv-x="989" d="M80 1192l252 289h325l252 -289h-317l-105 137l-104 -137h-303z" />
<glyph unicode="&#x2c7;" horiz-adv-x="989" d="M80 1481h317l105 -138l104 138h303l-252 -289h-325z" />
<glyph unicode="&#x2d8;" horiz-adv-x="976" d="M121 1503h264q0 -129 102 -129q105 0 105 129h264q0 -149 -103 -241.5t-266 -92.5q-162 0 -264 92.5t-102 241.5z" />
<glyph unicode="&#x2d9;" horiz-adv-x="636" d="M121 1368q0 75 54.5 121.5t143.5 46.5q88 0 142.5 -46.5t54.5 -121.5q0 -79 -54.5 -127.5t-142.5 -48.5q-93 0 -145.5 48t-52.5 128z" />
<glyph unicode="&#x2da;" horiz-adv-x="813" d="M121 1407q0 102 81 166.5t204 64.5q124 0 205 -64.5t81 -166.5t-81.5 -169t-204.5 -67q-122 0 -203.5 67t-81.5 169zM313 1405q0 -37 26 -60.5t67 -23.5q42 0 68 23.5t26 60.5t-26 60.5t-68 23.5q-41 0 -67 -23.5t-26 -60.5z" />
<glyph unicode="&#x2db;" horiz-adv-x="780" d="M141 -219q0 125 113.5 210t282.5 99l53 -90q-80 -22 -130 -68t-50 -102q0 -30 15.5 -49t41.5 -19q48 0 92 48l100 -156q-42 -49 -111.5 -76t-144.5 -27q-114 0 -188 62t-74 168z" />
<glyph unicode="&#x2dc;" horiz-adv-x="1034" d="M121 1186q0 134 67.5 224.5t173.5 90.5q54 0 111 -19.5t104.5 -39t77.5 -19.5q32 0 51.5 20.5t22.5 47.5h184q0 -145 -64.5 -230t-172.5 -85q-55 0 -112 19t-104.5 38.5t-80.5 19.5q-32 0 -51.5 -20t-22.5 -47h-184z" />
<glyph unicode="&#x2dd;" horiz-adv-x="1112" d="M100 1192l107 305h368l-206 -305h-269zM537 1192l106 305h369l-207 -305h-268z" />
<glyph unicode="&#x1e80;" horiz-adv-x="2408" d="M6 1178v256h756v-256h-150l168 -844l221 1100h502l228 -1100l165 844h-151v256h657v-256h-133l-291 -1178h-553l-213 901l-211 -901h-548l-312 1178h-135zM901 1845h434l129 -305h-293z" />
<glyph unicode="&#x1e81;" horiz-adv-x="2029" d="M14 840v247h621v-247h-100l104 -586l174 833h463l182 -825l101 578h-105v247h561v-247h-108l-215 -840h-508l-168 684l-164 -684h-500l-227 840h-111zM670 1497h434l129 -305h-293z" />
<glyph unicode="&#x1e82;" horiz-adv-x="2408" d="M6 1178v256h756v-256h-150l168 -844l221 1100h502l228 -1100l165 844h-151v256h657v-256h-133l-291 -1178h-553l-213 901l-211 -901h-548l-312 1178h-135zM1067 1540l129 305h434l-270 -305h-293z" />
<glyph unicode="&#x1e83;" horiz-adv-x="2029" d="M14 840v247h621v-247h-100l104 -586l174 833h463l182 -825l101 578h-105v247h561v-247h-108l-215 -840h-508l-168 684l-164 -684h-500l-227 840h-111zM836 1192l129 305h434l-271 -305h-292z" />
<glyph unicode="&#x1e84;" horiz-adv-x="2408" d="M6 1178v256h756v-256h-150l168 -844l221 1100h502l228 -1100l165 844h-151v256h657v-256h-133l-291 -1178h-553l-213 901l-211 -901h-548l-312 1178h-135zM803 1718q0 74 53.5 122t138.5 48q84 0 137.5 -48t53.5 -122q0 -78 -53 -127t-138 -49q-89 0 -140.5 48.5 t-51.5 127.5zM1319 1718q0 74 54 122t138 48t137.5 -48t53.5 -122q0 -77 -53.5 -126.5t-137.5 -49.5q-89 0 -140.5 49t-51.5 127z" />
<glyph unicode="&#x1e85;" horiz-adv-x="2029" d="M14 840v247h621v-247h-100l104 -586l174 833h463l182 -825l101 578h-105v247h561v-247h-108l-215 -840h-508l-168 684l-164 -684h-500l-227 840h-111zM571 1370q0 74 53.5 122t139.5 48q84 0 137 -48t53 -122q0 -78 -52.5 -127t-137.5 -49q-90 0 -141.5 48.5t-51.5 127.5 zM1087 1370q0 74 54.5 122t138.5 48t137 -48t53 -122q0 -77 -53 -126.5t-137 -49.5q-89 0 -141 49t-52 127z" />
<glyph unicode="&#x1ef2;" horiz-adv-x="1515" d="M16 1178v256h723v-228h-116l198 -364l201 364h-117v228h596v-256h-139l-365 -592v-330h158v-256h-784v256h159v322l-376 600h-138zM457 1845h434l129 -305h-293z" />
<glyph unicode="&#x1ef3;" horiz-adv-x="1400" d="M14 840v247h658v-247h-94l155 -557l154 557h-99v247h598v-247h-126l-297 -801q-67 -183 -246 -314t-389 -131q-108 0 -197 21v260q56 -18 125 -18q68 0 127 29.5t84 76.5l18 35l-340 842h-131zM375 1497h434l129 -305h-293z" />
<glyph unicode="&#x2000;" horiz-adv-x="1012" />
<glyph unicode="&#x2001;" horiz-adv-x="2025" />
<glyph unicode="&#x2002;" horiz-adv-x="1012" />
<glyph unicode="&#x2003;" horiz-adv-x="2025" />
<glyph unicode="&#x2004;" horiz-adv-x="675" />
<glyph unicode="&#x2005;" horiz-adv-x="506" />
<glyph unicode="&#x2006;" horiz-adv-x="337" />
<glyph unicode="&#x2007;" horiz-adv-x="337" />
<glyph unicode="&#x2008;" horiz-adv-x="253" />
<glyph unicode="&#x2009;" horiz-adv-x="405" />
<glyph unicode="&#x200a;" horiz-adv-x="112" />
<glyph unicode="&#x2010;" horiz-adv-x="712" d="M68 451v344l579 -2v-344z" />
<glyph unicode="&#x2011;" horiz-adv-x="712" d="M68 451v344l579 -2v-344z" />
<glyph unicode="&#x2012;" horiz-adv-x="712" d="M68 451v344l579 -2v-344z" />
<glyph unicode="&#x2013;" horiz-adv-x="1398" d="M68 473v301l1265 -4v-299z" />
<glyph unicode="&#x2014;" horiz-adv-x="1953" d="M68 473v301l1818 -4v-299z" />
<glyph unicode="&#x2018;" horiz-adv-x="649" d="M82 1004q0 159 81.5 294t233.5 232l111 -123q-135 -101 -150 -240h9q88 0 144 -68t56 -153q0 -100 -66 -164.5t-167 -64.5q-104 0 -178 82t-74 205z" />
<glyph unicode="&#x2019;" horiz-adv-x="649" d="M82 1300q0 100 66 165t167 65q104 0 178 -82t74 -205q0 -159 -81.5 -294t-233.5 -232l-111 123q135 101 150 239h-8q-88 0 -144.5 68t-56.5 153z" />
<glyph unicode="&#x201a;" horiz-adv-x="645" d="M80 225q0 100 66 165t167 65q104 0 178 -82t74 -205q0 -159 -81.5 -294t-233.5 -232l-111 122q135 101 150 240h-8q-88 0 -144.5 68t-56.5 153z" />
<glyph unicode="&#x201c;" horiz-adv-x="1187" d="M82 1008q0 159 81.5 294t233.5 232l111 -123q-135 -101 -150 -240h9q88 0 144 -68t56 -153q0 -100 -66 -164.5t-167 -64.5q-104 0 -178 82t-74 205zM621 1008q0 159 81.5 294t233.5 232l111 -123q-135 -101 -150 -240h8q88 0 144.5 -68t56.5 -153q0 -100 -66.5 -164.5 t-167.5 -64.5q-104 0 -177.5 82t-73.5 205z" />
<glyph unicode="&#x201d;" horiz-adv-x="1187" d="M82 1300q0 100 66 165t167 65q104 0 178 -82t74 -205q0 -159 -81.5 -294t-233.5 -232l-111 123q135 101 150 239h-8q-88 0 -144.5 68t-56.5 153zM621 1300q0 100 66 165t167 65q104 0 178 -82t74 -205q0 -159 -81.5 -294t-233.5 -232l-111 123q134 100 149 239h-8 q-88 0 -144 68t-56 153z" />
<glyph unicode="&#x201e;" horiz-adv-x="1183" d="M80 225q0 100 66 165t167 65q104 0 178 -82t74 -205q0 -159 -81.5 -294t-233.5 -232l-111 122q135 101 150 240h-8q-88 0 -144.5 68t-56.5 153zM618 225q0 100 66.5 165t167.5 65q104 0 178 -82t74 -205q0 -158 -82 -293t-234 -233l-110 122q134 100 149 240h-8 q-88 0 -144.5 68t-56.5 153z" />
<glyph unicode="&#x2020;" horiz-adv-x="1087" d="M78 766v389l295 -65l-45 344h432l-45 -344l295 65v-389l-295 63l45 -966h-432l45 966z" />
<glyph unicode="&#x2021;" horiz-adv-x="1087" d="M78 215v389l295 -65v290l-295 -63v389l295 -65l-45 344h432l-45 -344l295 65v-389l-295 63v-290l295 65v-389l-293 66l43 -418h-432l43 418z" />
<glyph unicode="&#x2022;" horiz-adv-x="1226" d="M188 692q0 164 128 287t298 123q169 0 291.5 -122.5t122.5 -287.5q0 -169 -122 -291t-292 -122q-112 0 -210 56t-157 151.5t-59 205.5z" />
<glyph unicode="&#x2026;" horiz-adv-x="2068" d="M80 215q0 97 75 168.5t175 71.5q99 0 170 -71.5t71 -168.5q0 -99 -71 -170.5t-170 -71.5q-100 0 -175 72t-75 170zM788 215q0 97 75 168.5t175 71.5q99 0 170.5 -71.5t71.5 -168.5q0 -99 -71.5 -170.5t-170.5 -71.5q-100 0 -175 72t-75 170zM1499 215q0 97 75 168.5 t175 71.5q99 0 170.5 -71.5t71.5 -168.5q0 -99 -71.5 -170.5t-170.5 -71.5q-100 0 -175 72t-75 170z" />
<glyph unicode="&#x202f;" horiz-adv-x="405" />
<glyph unicode="&#x2030;" horiz-adv-x="2629" d="M-8 1188q0 161 98.5 254.5t284.5 93.5q185 0 284 -94t99 -254q0 -165 -98.5 -261t-284.5 -96q-187 0 -285 95.5t-98 261.5zM182 0l1057 1434h379l-1057 -1434h-379zM297 1186q0 -164 78 -164t78 164q0 157 -78 157t-78 -157zM1053 252q0 161 98.5 254.5t284.5 93.5 q155 0 250 -67t122 -187q6 153 104.5 241.5t278.5 88.5q186 0 284.5 -93.5t98.5 -254.5q0 -165 -98 -261t-285 -96q-157 0 -251 68.5t-121 191.5q-6 -156 -104 -245.5t-279 -89.5q-187 0 -285 96t-98 260zM1358 250q0 -164 78 -164q77 0 77 164q0 158 -77 158 q-78 0 -78 -158zM2114 326q0 -164 77 -164q78 0 78 164q0 157 -78 157q-77 0 -77 -157z" />
<glyph unicode="&#x2039;" horiz-adv-x="731" d="M68 598l280 408h369l-281 -408l281 -405h-369z" />
<glyph unicode="&#x203a;" horiz-adv-x="731" d="M14 193l281 407l-281 406h369l281 -406l-281 -407h-369z" />
<glyph unicode="&#x2044;" horiz-adv-x="1005" d="M-37 -84l797 1602h282l-796 -1602h-283z" />
<glyph unicode="&#x205f;" horiz-adv-x="506" />
<glyph unicode="&#x2074;" horiz-adv-x="823" d="M16 854v129l353 455h268v-437h111v-147h-111v-80h111v-147h-490v147h113v80h-355zM203 1001h168v222z" />
<glyph unicode="&#x20ac;" horiz-adv-x="1492" d="M27 516l32 178h158q-2 14 -2 41t2 43h-188l28 176h189q59 226 214.5 369t352.5 143q183 0 307 -108v76h291v-441h-252q-48 160 -244 160q-81 0 -139.5 -51.5t-87.5 -147.5h391l-28 -176h-389q-3 -21 -3 -43q0 -20 3 -41h368l-35 -178h-309q28 -110 85.5 -169.5 t139.5 -59.5q94 3 162 55.5t101 140.5l286 -159q-157 -353 -592 -353q-248 0 -413.5 148t-216.5 397h-211z" />
<glyph unicode="&#x2116;" horiz-adv-x="2615" d="M61 0v256h123v922h-123v256h609l575 -859v603h-123v256h592v-256h-121v-1178h-493l-568 862v-606h123v-256h-594zM1778 1098q0 160 110 261t281 101t282 -101t111 -261q0 -168 -110 -272.5t-283 -104.5t-282 104.5t-109 272.5zM1800 387v256h740v-256h-740zM2060 1098 q0 -82 29 -130t80 -48q52 0 81 47.5t29 130.5q0 75 -29 120.5t-81 45.5q-50 0 -79.5 -45.5t-29.5 -120.5z" />
<glyph unicode="&#x2122;" horiz-adv-x="1959" d="M57 1233v248h750v-248h-172v110h-68v-458h78v-144h-426v144h78v458h-68v-110h-172zM864 741v144h51v452h-51v144h385l131 -330l131 330h371v-144h-51v-452h51v-144h-358v144h55v342l-141 -355h-172l-142 355v-342h56v-144h-316z" />
<glyph unicode="&#x2212;" horiz-adv-x="1144" d="M78 479v320h989v-320h-989z" />
<glyph unicode="&#x25fc;" horiz-adv-x="1085" d="M0 0v1085h1085v-1085h-1085z" />
<glyph unicode="&#xf6c3;" horiz-adv-x="0" d="M-461 -223q0 69 47 116.5t117 47.5q72 0 124 -58.5t52 -144.5q0 -104 -53.5 -194.5t-147.5 -153.5l-73 84q79 66 82 147h-6q-61 0 -101.5 48t-40.5 108z" />
<glyph horiz-adv-x="712" d="M68 561v344l579 -2v-344z" />
<glyph horiz-adv-x="1398" d="M68 592v301l1265 -4v-299z" />
<glyph horiz-adv-x="1953" d="M68 592v301l1818 -4v-299z" />
<glyph horiz-adv-x="1259" d="M68 733l280 408h369l-281 -408l281 -405h-369zM596 733l281 408h368l-280 -408l280 -405h-368z" />
<glyph horiz-adv-x="1259" d="M14 330l281 407l-281 406h369l281 -406l-281 -407h-369zM543 330l280 407l-280 406h368l281 -406l-281 -407h-368z" />
<glyph horiz-adv-x="731" d="M68 733l280 408h369l-281 -408l281 -405h-369z" />
<glyph horiz-adv-x="731" d="M14 328l281 407l-281 406h367l281 -406l-281 -407h-367z" />
<glyph horiz-adv-x="761" d="M88 713q0 250 133.5 491t364.5 424l172 -133q-283 -359 -283 -782q0 -424 283 -783l-172 -133q-231 183 -364.5 424.5t-133.5 491.5z" />
<glyph horiz-adv-x="761" d="M4 -70q283 359 283 783q0 423 -283 782l172 133q231 -183 364.5 -424t133.5 -491t-133.5 -491.5t-364.5 -424.5z" />
<glyph horiz-adv-x="724" d="M170 -215v1855h535v-210h-193v-1434h193v-211h-535z" />
<glyph horiz-adv-x="724" d="M20 -4h193v1434h-193v210h535v-1855h-535v211z" />
<glyph horiz-adv-x="770" d="M88 604v217q72 0 111 45t39 131v246q0 193 142.5 295t369.5 102v-217q-88 0 -129 -46.5t-41 -121.5v-266q0 -113 -64.5 -183.5t-187.5 -92.5q123 -23 187.5 -94t64.5 -183v-266q0 -75 41 -121.5t129 -46.5v-217q-227 0 -369.5 102t-142.5 295v246q0 85 -39.5 130.5 t-110.5 45.5z" />
<glyph horiz-adv-x="745" d="M201 -336v2026h344v-2026h-344z" />
<glyph horiz-adv-x="770" d="M20 2q88 0 129 46.5t41 121.5v266q0 113 64.5 184t187.5 93q-123 23 -187.5 93.5t-64.5 182.5v266q0 75 -41 121.5t-129 46.5v217q227 0 369.5 -102t142.5 -295v-246q0 -85 39.5 -130.5t110.5 -45.5v-217q-72 0 -111 -45t-39 -131v-246q0 -193 -142.5 -295t-369.5 -102 v217z" />
<glyph horiz-adv-x="985" d="M14 -164l621 1757h358l-620 -1757h-359z" />
<glyph horiz-adv-x="985" d="M-8 1593h358l621 -1757h-359z" />
<glyph horiz-adv-x="786" d="M143 0l90 952h322l90 -952h-502zM160 1274q0 96 68.5 164.5t164.5 68.5q97 0 165.5 -68t68.5 -165q0 -93 -69 -161.5t-165 -68.5q-95 0 -164 68.5t-69 161.5z" />
<glyph horiz-adv-x="1118" d="M53 377q0 62 20.5 116.5t53.5 93.5t73 74t79.5 64t72.5 56t53.5 57.5t20.5 62.5v39h365v-74q0 -66 -28.5 -125t-68.5 -102.5t-80.5 -83.5t-69 -86t-28.5 -94q0 -44 27.5 -74.5t68.5 -30.5q55 0 87.5 51.5t35.5 122.5l373 -116q-51 -163 -194 -260t-357 -97 q-228 0 -366 115.5t-138 290.5zM371 1262q0 97 68 165t165 68q96 0 165 -68.5t69 -164.5q0 -92 -69.5 -160t-164.5 -68q-96 0 -164.5 67.5t-68.5 160.5z" />
<glyph horiz-adv-x="706" d="M109 725q0 97 74.5 168.5t174.5 71.5q99 0 170.5 -71.5t71.5 -168.5q0 -99 -71.5 -170.5t-170.5 -71.5q-100 0 -174.5 72t-74.5 170z" />
<glyph horiz-adv-x="1226" d="M188 725q0 164 128 287t298 123q169 0 291.5 -122.5t122.5 -287.5q0 -169 -122 -291.5t-292 -122.5q-112 0 -210 56t-157 152t-59 206z" />
<glyph horiz-adv-x="1302" d="M66 723q0 727 585 727q586 0 586 -727q0 -358 -143.5 -550.5t-442.5 -192.5t-442 192.5t-143 550.5zM516 723q0 -106 5 -178.5t18.5 -136t41.5 -94.5t70 -31t70 31.5t41.5 95t18.5 135.5t5 178q0 214 -27 319t-108 105t-108 -105t-27 -319z" />
<glyph horiz-adv-x="1302" d="M66 1110l532 358l367 -61v-1147h317v-260h-1104v260h354v842l-305 -219z" />
<glyph horiz-adv-x="1302" d="M100 1063q45 180 191 286.5t360 106.5q235 0 379 -122t144 -310q0 -79 -29.5 -150t-78 -124.5t-107 -102.5t-118.5 -93.5t-111 -87.5t-87 -94t-43 -104h256v150h330v-418h-1077v139q0 92 33.5 179.5t87 156.5t118 133.5t129 120t118 106t87 101t33.5 96.5 q0 58 -31.5 91.5t-83.5 33.5q-61 0 -100 -59t-49 -148z" />
<glyph horiz-adv-x="1302" d="M51 338l367 113q18 -82 66 -131.5t120 -49.5q71 0 117.5 49.5t46.5 133.5q0 76 -64 120.5t-161 44.5h-115l-68 173l379 391h-266v-119h-332v371h1012v-238l-365 -344h9q200 0 317 -103t117 -288q0 -106 -46 -197.5t-127 -155.5t-195 -100.5t-247 -36.5q-219 0 -362 96.5 t-203 270.5z" />
<glyph horiz-adv-x="1302" d="M33 387v229l612 818h436v-799h154v-248h-154v-139h154v-248h-748v248h170v139h-624zM383 635h274v397z" />
<glyph horiz-adv-x="1302" d="M55 301l359 139q14 -71 63 -118.5t115 -47.5q80 0 130 54t50 143t-48 144t-130 55q-102 0 -164 -82l-307 96l65 750h920v-371h-330v106h-227l-39 -268q41 32 101 50t122 18q220 0 357 -138.5t137 -351.5q0 -223 -166.5 -365.5t-435.5 -142.5q-221 0 -364.5 84.5 t-207.5 245.5z" />
<glyph horiz-adv-x="1302" d="M68 678v22q0 160 44.5 298.5t127 241t208 161.5t279.5 59q236 0 432 -102l-127 -275q-138 78 -274 78q-112 0 -173 -94.5t-61 -253.5q37 62 104.5 100.5t151.5 38.5q204 0 339.5 -134.5t135.5 -342.5q0 -230 -163 -367t-420 -137q-286 0 -445 179t-159 528zM526 471 q0 -81 39 -141t103 -60q129 0 129 197q0 85 -34.5 140t-96.5 55q-64 0 -102 -54.5t-38 -136.5z" />
<glyph horiz-adv-x="1302" d="M76 969v465h1155v-240l-504 -1194h-461l504 1165h-364v-196h-330z" />
<glyph horiz-adv-x="1302" d="M63 420q0 142 89.5 233.5t238.5 110.5q-130 24 -210.5 108t-80.5 205q0 113 71.5 200t196 133t281.5 46t282 -46t197 -133t72 -200q0 -121 -80.5 -205t-210.5 -108q149 -19 238.5 -110.5t89.5 -233.5q0 -202 -160.5 -325.5t-427.5 -123.5q-268 0 -427 123.5t-159 325.5z M508 436q0 -78 37 -126t104 -48q69 0 106.5 48t37.5 126q0 81 -39.5 126.5t-104.5 45.5q-63 0 -102 -45.5t-39 -126.5zM539 1044q0 -61 30 -100t80 -39t81.5 39t31.5 100q0 57 -30 93.5t-83 36.5q-51 0 -80.5 -36.5t-29.5 -93.5z" />
<glyph horiz-adv-x="1302" d="M49 975q0 226 161 355.5t421 129.5q604 0 604 -704v-21q0 -168 -38.5 -305t-116 -241t-205.5 -161t-297 -57q-238 0 -441 99l133 272q137 -72 283 -72q227 0 227 375q-33 -62 -104.5 -99.5t-163.5 -37.5q-127 0 -233 59t-168 166.5t-62 241.5zM500 983q0 -83 34 -134.5 t101 -51.5t106 51.5t39 130.5q0 76 -38 130t-105 54t-102 -47.5t-35 -132.5z" />
</font>
</defs>
</svg>
